<?xml version="1.0" encoding="UTF-8" standalone="no"?>
<!DOCTYPE svg PUBLIC "-//W3C//DTD SVG 1.1//EN" "http://www.w3.org/Graphics/SVG/1.1/DTD/svg11.dtd">
<!-- Created with Vectornator (http://vectornator.io/) -->
<svg height="100%" stroke-miterlimit="10" style="fill-rule:nonzero;clip-rule:evenodd;stroke-linecap:round;stroke-linejoin:round;" version="1.1" viewBox="0 -3.26406e-14 168 160.095" width="100%" xml:space="preserve" xmlns="http://www.w3.org/2000/svg" xmlns:vectornator="http://vectornator.io" xmlns:xlink="http://www.w3.org/1999/xlink">
<defs>
<path d="M22.4648 9.67837C24.3331 8.63101 26.8241 9.16884 28.2678 10.7069C36.958 19.1235 45.2708 27.9364 54.0271 36.2775C56.0275 38.0042 57.6221 34.7961 59.0469 33.7204C62.0569 31.1634 64.2648 26.2663 68.8694 26.8418C72.6059 26.8135 75.3329 30.7293 75.1253 34.2488C75.1347 44.2695 75.1913 54.2996 75.0875 64.3298C75.2102 67.5473 72.2002 70.7177 68.9449 70.5667C58.5279 70.6422 48.111 70.6422 37.694 70.5667C33.6461 71.1046 30.3342 66.6509 30.8909 62.9238C33.0422 58.1871 37.8733 55.5168 41.1286 51.6293C41.7041 50.2423 40.402 49.3082 39.6189 48.3835C31.4098 40.2122 23.1725 32.0692 15.0389 23.8319C13.1235 22.3222 12.8404 19.2273 14.52 17.4439C16.9261 14.6321 19.4548 11.8391 22.4648 9.67837Z" id="Fill"/>
<path d="M141.996 9.30094C143.609 8.90464 145.336 9.25376 146.534 10.4332C149.205 12.7072 151.733 15.1888 153.866 17.9818C155.13 19.784 154.668 22.4637 152.951 23.8319C144.798 32.0598 136.589 40.2216 128.38 48.3835C127.588 49.3082 126.276 50.2517 126.861 51.6293C129.805 54.9696 133.579 57.5455 136.221 61.1594C138.533 64.1505 136.231 68.5475 133.268 70.0949C129.248 71.4065 124.955 71.2178 120.794 71.18C113.67 70.9536 106.499 71.633 99.4127 70.8404C96.0536 70.6894 92.7888 67.8115 92.9021 64.3298C92.8266 54.026 92.7983 43.7128 92.9115 33.4185C92.9776 28.7856 98.0256 25.3321 102.347 27.2476C105.801 29.8613 108.301 33.4846 111.604 36.2775C112.802 37.7589 114.264 36.0416 115.189 35.2113C122.879 27.4835 130.616 19.7934 138.288 12.0467C139.429 11.0371 140.477 9.72555 141.996 9.30094Z" id="Fill_2"/>
<path d="M32.9573 90.7496C34.7878 88.5228 37.9393 88.5511 40.5719 88.5417C50.0358 88.6738 59.5187 88.419 68.9827 88.6643C72.521 88.7209 75.3329 92.0046 75.1064 95.4863C75.163 105.573 75.1725 115.66 75.0875 125.747C75.5971 130.662 68.8789 135.041 64.9914 131.54C61.6134 128.983 59.3583 125.246 56.018 122.652C54.8575 121.595 53.7629 123.189 52.9137 123.85C44.7707 132.068 36.5806 140.249 28.381 148.42C27.0128 150.27 24.7011 150.128 22.663 149.817C19.7096 147.618 17.2469 144.825 14.6993 142.193C12.6612 140.277 13.2273 136.899 15.2371 135.192C23.9179 126.247 32.9856 117.66 41.5815 108.63C38.7225 104.677 34.2877 102.195 31.5985 98.1283C29.8341 95.7694 31.1645 92.6556 32.9573 90.7496Z" id="Fill_3"/>
<path d="M92.8926 95.4863C92.6567 91.9951 95.478 88.7493 99.0069 88.6549C108.471 88.4284 117.944 88.6643 127.418 88.5511C130.031 88.5794 133.211 88.5039 135.032 90.7307C137.099 92.6084 136.787 95.7694 136.221 98.2415C133.447 101.921 129.475 104.46 126.55 108.007C126.767 109.074 127.333 109.998 128.163 110.715C136.476 118.755 144.619 126.973 152.743 135.192C154.762 136.899 155.328 140.296 153.281 142.202C150.205 145.335 147.318 148.817 143.43 150.959C141.656 150.062 140.005 148.958 138.637 147.496C130.796 139.598 122.907 131.748 115.066 123.859C114.189 123.199 113.151 121.595 111.953 122.652C107.971 125.68 105.621 130.653 100.932 132.767C96.9217 133.389 92.5624 129.974 92.8926 125.737C92.8171 115.66 92.8266 105.564 92.8926 95.4863Z" id="Fill_4"/>
<path d="M0 16.1449C0 7.22833 7.22833-9.48756e-15 16.1449-9.48756e-15L151.855-9.48756e-15C160.772-9.48756e-15 168 7.22833 168 16.1449L168 143.95C168 152.866 160.772 160.095 151.855 160.095L16.1449 160.095C7.22833 160.095 0 152.866 0 143.95L0 16.1449Z" id="Fill_5"/>
</defs>
<g id="ccc" vectornator:layerName="ccc">
<path d="M0-3.26406e-14L168-3.26406e-14L168 160L0 160L0-3.26406e-14Z" fill="#303030" fill-rule="nonzero" opacity="0" stroke="none" vectornator:layerName="BG"/>
<g opacity="1" vectornator:layerName="Icons">
<g opacity="0" vectornator:layerName="collect">
<path d="M22.4648 9.67837C24.3331 8.63101 26.8241 9.16884 28.2678 10.7069C36.958 19.1235 45.2708 27.9364 54.0271 36.2775C56.0275 38.0042 57.6221 34.7961 59.0469 33.7204C62.0569 31.1634 64.2648 26.2663 68.8694 26.8418C72.6059 26.8135 75.3329 30.7293 75.1253 34.2488C75.1347 44.2695 75.1913 54.2996 75.0875 64.3298C75.2102 67.5473 72.2002 70.7177 68.9449 70.5667C58.5279 70.6422 48.111 70.6422 37.694 70.5667C33.6461 71.1046 30.3342 66.6509 30.8909 62.9238C33.0422 58.1871 37.8733 55.5168 41.1286 51.6293C41.7041 50.2423 40.402 49.3082 39.6189 48.3835C31.4098 40.2122 23.1725 32.0692 15.0389 23.8319C13.1235 22.3222 12.8404 19.2273 14.52 17.4439C16.9261 14.6321 19.4548 11.8391 22.4648 9.67837Z" fill="#012ec5" fill-rule="nonzero" opacity="1" stroke="none" vectornator:layerName="path 1"/>
<path d="M141.996 9.30094C143.609 8.90464 145.336 9.25376 146.534 10.4332C149.205 12.7072 151.733 15.1888 153.866 17.9818C155.13 19.784 154.668 22.4637 152.951 23.8319C144.798 32.0598 136.589 40.2216 128.38 48.3835C127.588 49.3082 126.276 50.2517 126.861 51.6293C129.805 54.9696 133.579 57.5455 136.221 61.1594C138.533 64.1505 136.231 68.5475 133.268 70.0949C129.248 71.4065 124.955 71.2178 120.794 71.18C113.67 70.9536 106.499 71.633 99.4127 70.8404C96.0536 70.6894 92.7888 67.8115 92.9021 64.3298C92.8266 54.026 92.7983 43.7128 92.9115 33.4185C92.9776 28.7856 98.0256 25.3321 102.347 27.2476C105.801 29.8613 108.301 33.4846 111.604 36.2775C112.802 37.7589 114.264 36.0416 115.189 35.2113C122.879 27.4835 130.616 19.7934 138.288 12.0467C139.429 11.0371 140.477 9.72555 141.996 9.30094Z" fill="#012ec5" fill-rule="nonzero" opacity="1" stroke="none" vectornator:layerName="path 2"/>
<path d="M32.9573 90.7496C34.7878 88.5228 37.9393 88.5511 40.5719 88.5417C50.0358 88.6738 59.5187 88.419 68.9827 88.6643C72.521 88.7209 75.3329 92.0046 75.1064 95.4863C75.163 105.573 75.1725 115.66 75.0875 125.747C75.5971 130.662 68.8789 135.041 64.9914 131.54C61.6134 128.983 59.3583 125.246 56.018 122.652C54.8575 121.595 53.7629 123.189 52.9137 123.85C44.7707 132.068 36.5806 140.249 28.381 148.42C27.0128 150.27 24.7011 150.128 22.663 149.817C19.7096 147.618 17.2469 144.825 14.6993 142.193C12.6612 140.277 13.2273 136.899 15.2371 135.192C23.9179 126.247 32.9856 117.66 41.5815 108.63C38.7225 104.677 34.2877 102.195 31.5985 98.1283C29.8341 95.7694 31.1645 92.6556 32.9573 90.7496Z" fill="#012ec5" fill-rule="nonzero" opacity="1" stroke="none" vectornator:layerName="path 3"/>
<path d="M92.8926 95.4863C92.6567 91.9951 95.478 88.7493 99.0069 88.6549C108.471 88.4284 117.944 88.6643 127.418 88.5511C130.031 88.5794 133.211 88.5039 135.032 90.7307C137.099 92.6084 136.787 95.7694 136.221 98.2415C133.447 101.921 129.475 104.46 126.55 108.007C126.767 109.074 127.333 109.998 128.163 110.715C136.476 118.755 144.619 126.973 152.743 135.192C154.762 136.899 155.328 140.296 153.281 142.202C150.205 145.335 147.318 148.817 143.43 150.959C141.656 150.062 140.005 148.958 138.637 147.496C130.796 139.598 122.907 131.748 115.066 123.859C114.189 123.199 113.151 121.595 111.953 122.652C107.971 125.68 105.621 130.653 100.932 132.767C96.9217 133.389 92.5624 129.974 92.8926 125.737C92.8171 115.66 92.8266 105.564 92.8926 95.4863Z" fill="#012ec5" fill-rule="nonzero" opacity="1" stroke="none" vectornator:layerName="path 4"/>
</g>
<path d="M44.527 9.02229C50.497 9.62229 56.417 10.9123 62.467 10.6323C72.147 11.0323 81.757 9.04229 91.437 9.89229C102.497 9.73229 113.697 10.9323 124.607 8.64229C127.577 17.5423 132.797 25.3823 137.477 33.4323C140.367 38.5123 144.557 42.8123 146.787 48.2723C151.007 58.4723 157.027 67.7923 163.207 76.9023C164.797 78.5223 162.897 80.3323 162.117 81.8423C154.957 92.0723 148.937 103.052 143.387 114.212C137.567 123.162 131.987 132.292 127.357 141.932C126.357 143.912 125.487 146.022 123.987 147.692C119.807 148.132 115.667 146.952 111.487 146.972C104.247 146.942 96.977 146.672 89.767 147.482C81.657 148.572 73.577 146.412 65.447 146.922C58.267 146.442 51.167 147.992 44.007 147.892C41.297 143.302 39.997 138.012 37.127 133.482C32.407 124.592 26.067 116.652 21.867 107.482C18.747 101.572 15.077 95.9823 11.767 90.1823C9.47702 86.1423 6.22702 82.7123 4.17702 78.5323C6.34702 74.7023 9.41702 71.4623 11.667 67.6723C16.287 60.1423 20.667 52.4623 24.697 44.6023C29.157 36.8023 33.897 29.1623 38.257 21.3023C40.507 17.2923 41.897 12.8223 44.527 9.02229M52.307 15.9923C55.297 21.2923 59.487 25.8023 64.077 29.7423C66.657 32.2723 70.287 30.0823 73.107 29.2323C84.287 24.6623 95.987 21.3723 106.927 16.1923C100.247 15.7723 93.557 15.6123 86.877 15.9423C75.357 15.9923 63.827 15.4623 52.307 15.9923M47.817 16.8123C46.627 23.9123 46.867 31.1723 47.957 38.2623C53.037 36.5223 58.037 34.5723 62.947 32.3923C58.227 26.9023 53.177 21.6923 47.817 16.8123M85.327 26.9523C79.467 28.8123 73.707 31.0423 68.207 33.8023C73.467 39.7723 78.757 45.7323 84.457 51.2923C90.167 45.0023 96.047 38.8723 101.807 32.6223C106.447 27.3923 111.737 22.6923 115.617 16.8223C105.157 19.0223 95.447 23.6423 85.327 26.9523M101.397 36.2523C96.457 41.5923 90.927 46.4723 86.737 52.4523C88.557 56.5323 91.907 59.6223 94.967 62.7823C100.117 67.9423 105.057 73.3023 110.317 78.3523C116.827 72.1123 122.917 65.4523 129.157 58.9623C132.347 55.5623 136.157 52.5523 138.267 48.3023C137.747 44.8423 135.777 41.8623 134.067 38.8923C129.427 31.4223 125.327 23.6223 120.467 16.2923C113.757 22.6023 107.847 29.6823 101.397 36.2523M32.877 43.4423C36.997 42.1623 41.067 40.7323 45.117 39.2723C45.047 33.8623 45.087 28.4423 44.717 23.0423C40.137 29.4523 36.147 36.2723 32.877 43.4423M47.647 40.6023C47.027 48.1023 46.477 55.7323 47.467 63.2123C49.377 69.3123 55.327 72.8823 59.467 77.4123C64.237 72.8023 68.637 67.8323 73.097 62.9323C76.057 59.6523 79.507 56.7823 82.027 53.1223C77.587 45.9423 70.477 40.9723 65.317 34.3523C59.357 36.2423 53.477 38.3723 47.647 40.6023M31.007 47.2223C34.997 52.7223 39.667 57.6923 44.887 62.0423C45.137 55.2923 45.027 48.5423 45.037 41.7823C40.237 43.2623 35.507 44.9723 31.007 47.2223M15.837 71.6823C14.357 74.3923 12.047 77.4123 13.237 80.6523C15.227 85.9723 18.777 90.5223 21.387 95.5323C23.777 100.152 26.797 104.392 29.927 108.532C34.527 103.892 39.327 99.3823 43.397 94.2523C45.467 91.7723 45.027 88.3623 45.127 85.3523C45.007 79.6823 45.257 74.0023 44.977 68.3323C44.997 65.3023 42.697 63.0723 40.767 61.0323C37.007 57.3223 33.157 53.7023 29.267 50.1123C24.217 56.9323 20.417 64.5623 15.837 71.6823M126.367 65.2523C121.467 70.1923 116.577 75.1423 111.887 80.2923C117.817 86.9023 124.047 93.2323 130.527 99.3023C132.617 91.6723 134.147 83.9123 135.607 76.1423C137.107 68.0623 139.477 60.1423 140.117 51.9223C135.057 55.8523 130.737 60.5923 126.367 65.2523M67.857 71.7123C65.627 74.0323 62.987 76.1723 61.757 79.2323C64.087 83.0423 67.387 86.1023 70.437 89.3023C75.397 94.2923 80.327 99.3123 85.337 104.252C93.277 96.5223 100.727 88.3223 108.417 80.3523C100.817 71.3723 92.347 63.1923 84.387 54.5323C78.667 60.0523 73.537 66.1523 67.857 71.7123M133.067 98.1923C131.477 102.922 136.067 105.862 139.087 108.532C143.777 101.162 147.817 93.4123 152.307 85.9223C153.687 83.4823 155.197 81.0223 155.767 78.2423C155.647 75.8623 154.287 73.7923 153.227 71.7323C149.937 66.1623 146.607 60.6023 142.957 55.2623C138.517 69.2823 136.517 83.9223 133.067 98.1923M47.767 68.7823C46.677 75.6223 46.827 82.6223 48.067 89.4323C51.347 86.2823 54.927 83.2723 57.167 79.2423C55.007 74.9923 51.197 71.9523 47.767 68.7823M48.017 93.8723C46.067 99.3223 47.237 105.312 47.567 110.952C57.157 110.772 66.767 111.152 76.357 110.882C79.407 111.052 81.687 108.712 83.137 106.302C81.137 102.012 77.207 99.1123 74.097 95.6723C69.307 90.8823 65.417 85.0123 59.537 81.4323C55.187 85.0023 50.877 88.9723 48.017 93.8723M86.777 106.482C89.317 108.472 91.867 111.162 95.377 110.932C106.477 111.062 117.587 110.822 128.697 110.962C129.037 108.462 129.617 105.982 129.587 103.452C128.707 101.392 127.097 99.7723 125.617 98.1423C120.507 92.8423 115.497 87.4423 110.327 82.2023C102.217 90.0423 94.327 98.1123 86.777 106.482M31.757 110.772C36.197 110.892 40.647 110.912 45.087 110.982C45.017 106.262 45.037 101.542 44.927 96.8323C40.207 101.142 35.737 105.762 31.757 110.772M130.307 110.862C132.397 110.852 134.497 110.822 136.587 110.762C135.207 108.932 133.797 107.122 132.377 105.322C131.677 107.172 130.997 109.012 130.307 110.862M82.637 110.312C84.187 110.672 85.737 111.022 87.287 111.382C87.227 110.482 87.097 108.672 87.037 107.762C85.567 108.612 84.097 109.452 82.637 110.312M32.467 113.722C36.407 120.882 40.307 128.082 44.727 134.962C45.187 127.762 45.027 120.532 45.077 113.322C40.867 113.002 36.657 113.312 32.467 113.722M47.527 113.422C46.907 120.042 46.987 126.702 47.017 133.342C47.167 136.052 47.027 139.262 49.287 141.192C58.757 132.812 66.987 123.112 75.637 113.892C66.287 113.302 56.887 112.932 47.527 113.422M74.787 118.652C67.877 126.132 60.297 132.982 53.617 140.692C63.847 142.522 74.177 141.332 84.447 140.762C95.397 141.512 106.457 142.492 117.377 140.632C109.877 132.402 101.787 124.742 94.197 116.592C91.127 112.972 86.017 112.072 81.587 113.272C78.807 114.272 76.837 116.622 74.787 118.652M94.547 113.892C102.977 123.092 111.777 131.982 120.907 140.482C124.437 131.932 125.657 122.702 127.487 113.692C116.557 112.482 105.457 112.522 94.547 113.892M129.817 113.672C128.747 118.372 127.777 123.112 127.527 127.942C131.157 123.732 133.657 118.742 135.967 113.722C133.917 113.692 131.867 113.682 129.817 113.672Z" fill="#4cca06" fill-rule="nonzero" opacity="1" stroke="none" vectornator:layerName="connect"/>
<path d="M65.5027 7.73704C69.0127 4.09704 74.8227 4.97704 78.6227 7.65704C85.7327 12.467 90.9827 19.527 95.6327 26.637C98.1227 30.257 99.6727 34.607 102.853 37.697C105.673 39.127 108.963 39.167 112.013 39.847C118.113 40.817 123.823 43.297 129.793 44.807C134.943 35.817 140.613 26.947 143.273 16.807C143.543 16.697 144.093 16.477 144.363 16.367C143.663 24.417 140.143 31.827 136.673 38.997C135.543 41.417 134.233 43.827 133.813 46.507C137.663 50.047 142.763 52.137 145.953 56.417C148.383 59.347 150.273 63.347 148.923 67.167C146.463 70.007 142.483 70.627 139.143 71.917C145.403 77.647 154.303 82.627 155.333 91.917C156.263 97.067 152.143 101.227 147.853 103.237C137.193 108.357 125.103 107.567 113.623 107.617C110.253 107.357 108.363 110.447 106.443 112.657C101.813 118.497 96.0727 123.297 90.8227 128.547C95.8027 137.707 101.543 146.407 107.753 154.777C98.8727 148.637 93.6827 138.917 87.8927 130.107C82.1227 133.007 76.3027 136.767 69.5927 136.557C67.2427 136.497 64.3227 136.697 62.9027 134.407C59.7527 130.647 62.6527 125.927 63.9127 122.017C55.9127 126.007 46.8527 129.187 37.8527 126.997C33.1927 125.597 31.2827 120.287 31.2627 115.847C32.1927 104.247 37.8927 93.767 43.8727 84.037C44.6727 82.377 46.1527 80.577 45.4527 78.637C44.2427 74.347 42.2527 70.327 41.2027 65.987C39.9927 61.707 39.5927 57.227 38.1127 53.027C36.7827 52.257 35.1727 52.407 33.7027 52.307C24.2727 52.107 14.9727 54.027 5.58267 54.627C15.8827 50.127 27.3127 50.327 38.2827 49.167C38.8227 41.497 38.3627 32.297 44.5827 26.687C49.2427 22.717 53.7327 29.077 57.0227 31.897C58.3227 23.497 58.8627 13.917 65.5027 7.73704M72.8127 24.877C69.1127 30.127 68.4327 36.727 67.9527 42.947C76.7427 39.357 86.1027 37.717 95.5427 37.087C91.2127 31.517 87.2727 25.017 80.6827 21.867C77.7427 20.397 74.5227 22.507 72.8127 24.877M48.7327 36.857C46.2627 40.457 46.0927 44.987 45.9027 49.197C50.0027 49.297 54.1227 49.327 58.2227 49.237C57.9027 45.257 57.9527 41.037 56.1627 37.367C54.8327 34.617 50.3427 34.147 48.7327 36.857M67.8827 47.327C67.8727 64.657 71.8827 81.747 77.4627 98.077C75.7127 98.837 73.9727 99.607 72.2327 100.377C67.3827 88.937 63.3727 77.077 61.1027 64.847C60.4027 61.867 60.0527 58.397 57.4427 56.377C54.4827 53.297 49.8327 53.827 45.9527 53.287C45.9527 58.477 46.7827 63.607 47.9827 68.637C50.9827 80.367 55.7527 92.277 64.6427 100.807C66.9127 102.677 69.8027 105.677 73.0027 104.157C78.3827 101.537 82.8727 97.467 87.5827 93.837C95.9627 87.307 102.873 79.197 110.413 71.777C111.783 72.727 113.123 73.737 114.423 74.797C109.553 82.357 102.913 88.447 96.9727 95.127C92.7727 99.767 87.5927 103.427 83.6727 108.347C89.5627 108.977 95.4327 107.827 100.823 105.477C95.5527 109.117 89.3227 110.847 82.9827 111.367C84.2127 114.927 85.6527 118.427 87.2927 121.817C93.1427 118.027 98.4127 113.437 103.143 108.327C112.013 98.807 119.923 86.817 119.513 73.287C113.953 70.347 108.373 67.407 102.473 65.207C92.2927 61.177 81.5527 58.917 70.9427 56.357C70.9627 54.577 71.0427 52.807 71.1927 51.037C79.4627 51.197 87.4427 53.627 95.4727 55.357C102.263 56.807 108.733 59.477 115.563 60.797C113.413 56.467 110.463 52.637 107.583 48.787C111.983 51.877 115.703 55.807 118.853 60.157C121.083 57.317 123.213 54.397 125.273 51.437C121.883 49.357 118.363 47.427 114.533 46.257C103.703 42.857 92.2127 41.387 80.8927 42.527C76.2327 43.057 71.8927 44.977 67.8827 47.327M122.733 63.887C126.713 65.787 130.663 68.847 135.303 68.347C137.103 68.067 139.603 66.917 139.213 64.707C138.983 59.167 133.503 56.107 129.553 53.147C127.123 56.627 124.893 60.237 122.733 63.887M123.203 75.517C122.573 79.867 122.183 84.287 120.853 88.497C119.393 93.287 116.903 97.667 114.933 102.247C121.543 101.697 128.523 101.167 134.343 97.657C136.593 96.367 137.833 93.617 136.933 91.107C134.993 84.087 128.873 79.507 123.203 75.517M48.6027 86.997C45.4427 93.427 41.9827 100.437 43.1127 107.817C44.3927 111.057 48.3727 112.307 51.6027 112.317C57.2527 112.087 62.4427 109.527 67.6727 107.667C64.8227 104.867 61.7627 102.297 58.8927 99.527C55.0227 95.717 52.1027 91.117 48.6027 86.997M66.4027 124.047C67.7827 125.207 69.2127 126.347 70.8127 127.197C75.3427 128.047 79.5927 125.657 83.6227 123.957C81.8427 120.107 79.8527 116.357 77.6727 112.707C72.9627 115.417 68.6327 118.947 66.4027 124.047Z" fill="#990202" fill-rule="nonzero" opacity="0" stroke="none" vectornator:layerName="create"/>
</g>
<g opacity="0" vectornator:layerName="Icons outline">
<g opacity="0" vectornator:layerName="collect">
<g opacity="1" vectornator:layerName="path 1">
<use fill="#012ec5" fill-rule="nonzero" stroke="none" xlink:href="#Fill"/>
<mask height="61.4873" id="StrokeMask" maskUnits="userSpaceOnUse" width="61.7345" x="13.4146" y="9.13607">
<rect fill="#000000" height="61.4873" stroke="none" width="61.7345" x="13.4146" y="9.13607"/>
<use fill="#ffffff" fill-rule="evenodd" stroke="none" xlink:href="#Fill"/>
</mask>
<use fill="none" mask="url(#StrokeMask)" stroke="#ffffff" stroke-linecap="butt" stroke-linejoin="round" stroke-width="1" xlink:href="#Fill"/>
</g>
<g opacity="1" vectornator:layerName="path 2">
<use fill="#012ec5" fill-rule="nonzero" stroke="none" xlink:href="#Fill_2"/>
<mask height="62.0927" id="StrokeMask_2" maskUnits="userSpaceOnUse" width="61.7495" x="92.8358" y="9.14448">
<rect fill="#000000" height="62.0927" stroke="none" width="61.7495" x="92.8358" y="9.14448"/>
<use fill="#ffffff" fill-rule="evenodd" stroke="none" xlink:href="#Fill_2"/>
</mask>
<use fill="none" mask="url(#StrokeMask_2)" stroke="#ffffff" stroke-linecap="butt" stroke-linejoin="round" stroke-width="1" xlink:href="#Fill_2"/>
</g>
<g opacity="1" vectornator:layerName="path 3">
<use fill="#012ec5" fill-rule="nonzero" stroke="none" xlink:href="#Fill_3"/>
<mask height="61.4626" id="StrokeMask_3" maskUnits="userSpaceOnUse" width="61.7278" x="13.4223" y="88.5417">
<rect fill="#000000" height="61.4626" stroke="none" width="61.7278" x="13.4223" y="88.5417"/>
<use fill="#ffffff" fill-rule="evenodd" stroke="none" xlink:href="#Fill_3"/>
</mask>
<use fill="none" mask="url(#StrokeMask_3)" stroke="#ffffff" stroke-linecap="butt" stroke-linejoin="round" stroke-width="1" xlink:href="#Fill_3"/>
</g>
<g opacity="1" vectornator:layerName="path 4">
<use fill="#012ec5" fill-rule="nonzero" stroke="none" xlink:href="#Fill_4"/>
<mask height="62.4075" id="StrokeMask_4" maskUnits="userSpaceOnUse" width="61.7253" x="92.8395" y="88.5511">
<rect fill="#000000" height="62.4075" stroke="none" width="61.7253" x="92.8395" y="88.5511"/>
<use fill="#ffffff" fill-rule="evenodd" stroke="none" xlink:href="#Fill_4"/>
</mask>
<use fill="none" mask="url(#StrokeMask_4)" stroke="#ffffff" stroke-linecap="butt" stroke-linejoin="round" stroke-width="1" xlink:href="#Fill_4"/>
</g>
</g>
<path d="M44.527 9.02229C50.497 9.62229 56.417 10.9123 62.467 10.6323C72.147 11.0323 81.757 9.04229 91.437 9.89229C102.497 9.73229 113.697 10.9323 124.607 8.64229C127.577 17.5423 132.797 25.3823 137.477 33.4323C140.367 38.5123 144.557 42.8123 146.787 48.2723C151.007 58.4723 157.027 67.7923 163.207 76.9023C164.797 78.5223 162.897 80.3323 162.117 81.8423C154.957 92.0723 148.937 103.052 143.387 114.212C137.567 123.162 131.987 132.292 127.357 141.932C126.357 143.912 125.487 146.022 123.987 147.692C119.807 148.132 115.667 146.952 111.487 146.972C104.247 146.942 96.977 146.672 89.767 147.482C81.657 148.572 73.577 146.412 65.447 146.922C58.267 146.442 51.167 147.992 44.007 147.892C41.297 143.302 39.997 138.012 37.127 133.482C32.407 124.592 26.067 116.652 21.867 107.482C18.747 101.572 15.077 95.9823 11.767 90.1823C9.47702 86.1423 6.22702 82.7123 4.17702 78.5323C6.34702 74.7023 9.41702 71.4623 11.667 67.6723C16.287 60.1423 20.667 52.4623 24.697 44.6023C29.157 36.8023 33.897 29.1623 38.257 21.3023C40.507 17.2923 41.897 12.8223 44.527 9.02229M52.307 15.9923C55.297 21.2923 59.487 25.8023 64.077 29.7423C66.657 32.2723 70.287 30.0823 73.107 29.2323C84.287 24.6623 95.987 21.3723 106.927 16.1923C100.247 15.7723 93.557 15.6123 86.877 15.9423C75.357 15.9923 63.827 15.4623 52.307 15.9923M47.817 16.8123C46.627 23.9123 46.867 31.1723 47.957 38.2623C53.037 36.5223 58.037 34.5723 62.947 32.3923C58.227 26.9023 53.177 21.6923 47.817 16.8123M85.327 26.9523C79.467 28.8123 73.707 31.0423 68.207 33.8023C73.467 39.7723 78.757 45.7323 84.457 51.2923C90.167 45.0023 96.047 38.8723 101.807 32.6223C106.447 27.3923 111.737 22.6923 115.617 16.8223C105.157 19.0223 95.447 23.6423 85.327 26.9523M101.397 36.2523C96.457 41.5923 90.927 46.4723 86.737 52.4523C88.557 56.5323 91.907 59.6223 94.967 62.7823C100.117 67.9423 105.057 73.3023 110.317 78.3523C116.827 72.1123 122.917 65.4523 129.157 58.9623C132.347 55.5623 136.157 52.5523 138.267 48.3023C137.747 44.8423 135.777 41.8623 134.067 38.8923C129.427 31.4223 125.327 23.6223 120.467 16.2923C113.757 22.6023 107.847 29.6823 101.397 36.2523M32.877 43.4423C36.997 42.1623 41.067 40.7323 45.117 39.2723C45.047 33.8623 45.087 28.4423 44.717 23.0423C40.137 29.4523 36.147 36.2723 32.877 43.4423M47.647 40.6023C47.027 48.1023 46.477 55.7323 47.467 63.2123C49.377 69.3123 55.327 72.8823 59.467 77.4123C64.237 72.8023 68.637 67.8323 73.097 62.9323C76.057 59.6523 79.507 56.7823 82.027 53.1223C77.587 45.9423 70.477 40.9723 65.317 34.3523C59.357 36.2423 53.477 38.3723 47.647 40.6023M31.007 47.2223C34.997 52.7223 39.667 57.6923 44.887 62.0423C45.137 55.2923 45.027 48.5423 45.037 41.7823C40.237 43.2623 35.507 44.9723 31.007 47.2223M15.837 71.6823C14.357 74.3923 12.047 77.4123 13.237 80.6523C15.227 85.9723 18.777 90.5223 21.387 95.5323C23.777 100.152 26.797 104.392 29.927 108.532C34.527 103.892 39.327 99.3823 43.397 94.2523C45.467 91.7723 45.027 88.3623 45.127 85.3523C45.007 79.6823 45.257 74.0023 44.977 68.3323C44.997 65.3023 42.697 63.0723 40.767 61.0323C37.007 57.3223 33.157 53.7023 29.267 50.1123C24.217 56.9323 20.417 64.5623 15.837 71.6823M126.367 65.2523C121.467 70.1923 116.577 75.1423 111.887 80.2923C117.817 86.9023 124.047 93.2323 130.527 99.3023C132.617 91.6723 134.147 83.9123 135.607 76.1423C137.107 68.0623 139.477 60.1423 140.117 51.9223C135.057 55.8523 130.737 60.5923 126.367 65.2523M67.857 71.7123C65.627 74.0323 62.987 76.1723 61.757 79.2323C64.087 83.0423 67.387 86.1023 70.437 89.3023C75.397 94.2923 80.327 99.3123 85.337 104.252C93.277 96.5223 100.727 88.3223 108.417 80.3523C100.817 71.3723 92.347 63.1923 84.387 54.5323C78.667 60.0523 73.537 66.1523 67.857 71.7123M133.067 98.1923C131.477 102.922 136.067 105.862 139.087 108.532C143.777 101.162 147.817 93.4123 152.307 85.9223C153.687 83.4823 155.197 81.0223 155.767 78.2423C155.647 75.8623 154.287 73.7923 153.227 71.7323C149.937 66.1623 146.607 60.6023 142.957 55.2623C138.517 69.2823 136.517 83.9223 133.067 98.1923M47.767 68.7823C46.677 75.6223 46.827 82.6223 48.067 89.4323C51.347 86.2823 54.927 83.2723 57.167 79.2423C55.007 74.9923 51.197 71.9523 47.767 68.7823M48.017 93.8723C46.067 99.3223 47.237 105.312 47.567 110.952C57.157 110.772 66.767 111.152 76.357 110.882C79.407 111.052 81.687 108.712 83.137 106.302C81.137 102.012 77.207 99.1123 74.097 95.6723C69.307 90.8823 65.417 85.0123 59.537 81.4323C55.187 85.0023 50.877 88.9723 48.017 93.8723M86.777 106.482C89.317 108.472 91.867 111.162 95.377 110.932C106.477 111.062 117.587 110.822 128.697 110.962C129.037 108.462 129.617 105.982 129.587 103.452C128.707 101.392 127.097 99.7723 125.617 98.1423C120.507 92.8423 115.497 87.4423 110.327 82.2023C102.217 90.0423 94.327 98.1123 86.777 106.482M31.757 110.772C36.197 110.892 40.647 110.912 45.087 110.982C45.017 106.262 45.037 101.542 44.927 96.8323C40.207 101.142 35.737 105.762 31.757 110.772M130.307 110.862C132.397 110.852 134.497 110.822 136.587 110.762C135.207 108.932 133.797 107.122 132.377 105.322C131.677 107.172 130.997 109.012 130.307 110.862M82.637 110.312C84.187 110.672 85.737 111.022 87.287 111.382C87.227 110.482 87.097 108.672 87.037 107.762C85.567 108.612 84.097 109.452 82.637 110.312M32.467 113.722C36.407 120.882 40.307 128.082 44.727 134.962C45.187 127.762 45.027 120.532 45.077 113.322C40.867 113.002 36.657 113.312 32.467 113.722M47.527 113.422C46.907 120.042 46.987 126.702 47.017 133.342C47.167 136.052 47.027 139.262 49.287 141.192C58.757 132.812 66.987 123.112 75.637 113.892C66.287 113.302 56.887 112.932 47.527 113.422M74.787 118.652C67.877 126.132 60.297 132.982 53.617 140.692C63.847 142.522 74.177 141.332 84.447 140.762C95.397 141.512 106.457 142.492 117.377 140.632C109.877 132.402 101.787 124.742 94.197 116.592C91.127 112.972 86.017 112.072 81.587 113.272C78.807 114.272 76.837 116.622 74.787 118.652M94.547 113.892C102.977 123.092 111.777 131.982 120.907 140.482C124.437 131.932 125.657 122.702 127.487 113.692C116.557 112.482 105.457 112.522 94.547 113.892M129.817 113.672C128.747 118.372 127.777 123.112 127.527 127.942C131.157 123.732 133.657 118.742 135.967 113.722C133.917 113.692 131.867 113.682 129.817 113.672Z" fill="#4cca06" fill-rule="nonzero" opacity="1" stroke="#ffffff" stroke-linecap="butt" stroke-linejoin="round" stroke-width="0.5" vectornator:layerName="connect"/>
<path d="M65.5027 7.73704C69.0127 4.09704 74.8227 4.97704 78.6227 7.65704C85.7327 12.467 90.9827 19.527 95.6327 26.637C98.1227 30.257 99.6727 34.607 102.853 37.697C105.673 39.127 108.963 39.167 112.013 39.847C118.113 40.817 123.823 43.297 129.793 44.807C134.943 35.817 140.613 26.947 143.273 16.807C143.543 16.697 144.093 16.477 144.363 16.367C143.663 24.417 140.143 31.827 136.673 38.997C135.543 41.417 134.233 43.827 133.813 46.507C137.663 50.047 142.763 52.137 145.953 56.417C148.383 59.347 150.273 63.347 148.923 67.167C146.463 70.007 142.483 70.627 139.143 71.917C145.403 77.647 154.303 82.627 155.333 91.917C156.263 97.067 152.143 101.227 147.853 103.237C137.193 108.357 125.103 107.567 113.623 107.617C110.253 107.357 108.363 110.447 106.443 112.657C101.813 118.497 96.0727 123.297 90.8227 128.547C95.8027 137.707 101.543 146.407 107.753 154.777C98.8727 148.637 93.6827 138.917 87.8927 130.107C82.1227 133.007 76.3027 136.767 69.5927 136.557C67.2427 136.497 64.3227 136.697 62.9027 134.407C59.7527 130.647 62.6527 125.927 63.9127 122.017C55.9127 126.007 46.8527 129.187 37.8527 126.997C33.1927 125.597 31.2827 120.287 31.2627 115.847C32.1927 104.247 37.8927 93.767 43.8727 84.037C44.6727 82.377 46.1527 80.577 45.4527 78.637C44.2427 74.347 42.2527 70.327 41.2027 65.987C39.9927 61.707 39.5927 57.227 38.1127 53.027C36.7827 52.257 35.1727 52.407 33.7027 52.307C24.2727 52.107 14.9727 54.027 5.58267 54.627C15.8827 50.127 27.3127 50.327 38.2827 49.167C38.8227 41.497 38.3627 32.297 44.5827 26.687C49.2427 22.717 53.7327 29.077 57.0227 31.897C58.3227 23.497 58.8627 13.917 65.5027 7.73704M72.8127 24.877C69.1127 30.127 68.4327 36.727 67.9527 42.947C76.7427 39.357 86.1027 37.717 95.5427 37.087C91.2127 31.517 87.2727 25.017 80.6827 21.867C77.7427 20.397 74.5227 22.507 72.8127 24.877M48.7327 36.857C46.2627 40.457 46.0927 44.987 45.9027 49.197C50.0027 49.297 54.1227 49.327 58.2227 49.237C57.9027 45.257 57.9527 41.037 56.1627 37.367C54.8327 34.617 50.3427 34.147 48.7327 36.857M67.8827 47.327C67.8727 64.657 71.8827 81.747 77.4627 98.077C75.7127 98.837 73.9727 99.607 72.2327 100.377C67.3827 88.937 63.3727 77.077 61.1027 64.847C60.4027 61.867 60.0527 58.397 57.4427 56.377C54.4827 53.297 49.8327 53.827 45.9527 53.287C45.9527 58.477 46.7827 63.607 47.9827 68.637C50.9827 80.367 55.7527 92.277 64.6427 100.807C66.9127 102.677 69.8027 105.677 73.0027 104.157C78.3827 101.537 82.8727 97.467 87.5827 93.837C95.9627 87.307 102.873 79.197 110.413 71.777C111.783 72.727 113.123 73.737 114.423 74.797C109.553 82.357 102.913 88.447 96.9727 95.127C92.7727 99.767 87.5927 103.427 83.6727 108.347C89.5627 108.977 95.4327 107.827 100.823 105.477C95.5527 109.117 89.3227 110.847 82.9827 111.367C84.2127 114.927 85.6527 118.427 87.2927 121.817C93.1427 118.027 98.4127 113.437 103.143 108.327C112.013 98.807 119.923 86.817 119.513 73.287C113.953 70.347 108.373 67.407 102.473 65.207C92.2927 61.177 81.5527 58.917 70.9427 56.357C70.9627 54.577 71.0427 52.807 71.1927 51.037C79.4627 51.197 87.4427 53.627 95.4727 55.357C102.263 56.807 108.733 59.477 115.563 60.797C113.413 56.467 110.463 52.637 107.583 48.787C111.983 51.877 115.703 55.807 118.853 60.157C121.083 57.317 123.213 54.397 125.273 51.437C121.883 49.357 118.363 47.427 114.533 46.257C103.703 42.857 92.2127 41.387 80.8927 42.527C76.2327 43.057 71.8927 44.977 67.8827 47.327M122.733 63.887C126.713 65.787 130.663 68.847 135.303 68.347C137.103 68.067 139.603 66.917 139.213 64.707C138.983 59.167 133.503 56.107 129.553 53.147C127.123 56.627 124.893 60.237 122.733 63.887M123.203 75.517C122.573 79.867 122.183 84.287 120.853 88.497C119.393 93.287 116.903 97.667 114.933 102.247C121.543 101.697 128.523 101.167 134.343 97.657C136.593 96.367 137.833 93.617 136.933 91.107C134.993 84.087 128.873 79.507 123.203 75.517M48.6027 86.997C45.4427 93.427 41.9827 100.437 43.1127 107.817C44.3927 111.057 48.3727 112.307 51.6027 112.317C57.2527 112.087 62.4427 109.527 67.6727 107.667C64.8227 104.867 61.7627 102.297 58.8927 99.527C55.0227 95.717 52.1027 91.117 48.6027 86.997M66.4027 124.047C67.7827 125.207 69.2127 126.347 70.8127 127.197C75.3427 128.047 79.5927 125.657 83.6227 123.957C81.8427 120.107 79.8527 116.357 77.6727 112.707C72.9627 115.417 68.6327 118.947 66.4027 124.047Z" fill="#990202" fill-rule="nonzero" opacity="0" stroke="#ffffff" stroke-linecap="butt" stroke-linejoin="round" stroke-width="0.5" vectornator:layerName="create"/>
</g>
<g opacity="1" vectornator:layerName="Frame rnd 2pt">
<mask height="160.095" id="StrokeMask_5" maskUnits="userSpaceOnUse" width="168" x="0" y="-9.48756e-15">
<rect fill="#000000" height="160.095" stroke="none" width="168" x="0" y="-9.48756e-15"/>
<use fill="#ffffff" fill-rule="evenodd" stroke="none" xlink:href="#Fill_5"/>
</mask>
<use fill="none" mask="url(#StrokeMask_5)" stroke="#ffffff" stroke-linecap="butt" stroke-linejoin="round" stroke-width="4" xlink:href="#Fill_5"/>
</g>
</g>
</svg>
