<?xml version="1.0" encoding="UTF-8"?>
<!DOCTYPE svg  PUBLIC '-//W3C//DTD SVG 1.1//EN'  'http://www.w3.org/Graphics/SVG/1.1/DTD/svg11.dtd'>
<svg clip-rule="evenodd" stroke-linecap="round" stroke-linejoin="round" stroke-miterlimit="10" version="1.1" viewBox="0 -3.2641e-14 168 160.1" xml:space="preserve" xmlns="http://www.w3.org/2000/svg" xmlns:vectornator="http://vectornator.io" xmlns:xlink="http://www.w3.org/1999/xlink">
<defs>
<path id="d" d="m22.465 9.6784c1.8683-1.0474 4.3593-0.50953 5.803 1.0285 8.6902 8.4166 17.003 17.23 25.759 25.571 2.0004 1.7267 3.595-1.4814 5.0198-2.5571 3.01-2.557 5.2179-7.4541 9.8225-6.8786 3.7365-0.0283 6.4635 3.8875 6.2559 7.407 0.0094 10.021 0.066 20.051-0.0378 30.081 0.1227 3.2175-2.8873 6.3879-6.1426 6.2369-10.417 0.0755-20.834 0.0755-31.251 0-4.0479 0.5379-7.3598-3.9158-6.8031-7.6429 2.1513-4.7367 6.9824-7.407 10.238-11.294 0.5755-1.387-0.7266-2.3211-1.5097-3.2458-8.2091-8.1713-16.446-16.314-24.58-24.552-1.9154-1.5097-2.1985-4.6046-0.5189-6.388 2.4061-2.8118 4.9348-5.6048 7.9448-7.7655z"/>
<path id="c" d="m142 9.3009c1.613-0.3963 3.34-0.04718 4.538 1.1323 2.671 2.274 5.199 4.7556 7.332 7.5486 1.264 1.8022 0.802 4.4819-0.915 5.8501-8.153 8.2279-16.362 16.39-24.571 24.552-0.792 0.9247-2.104 1.8682-1.519 3.2458 2.944 3.3403 6.718 5.9162 9.36 9.5301 2.312 2.9911 0.01 7.3881-2.953 8.9355-4.02 1.3116-8.313 1.1229-12.474 1.0851-7.124-0.2264-14.295 0.453-21.381-0.3396-3.3591-0.151-6.6239-3.0289-6.5106-6.5106-0.0755-10.304-0.1038-20.617 0.0094-30.911 0.0661-4.6329 5.1141-8.0864 9.4355-6.1709 3.454 2.6137 5.954 6.237 9.257 9.0299 1.198 1.4814 2.66-0.2359 3.585-1.0662 7.69-7.7278 15.427-15.418 23.099-23.165 1.141-1.0096 2.189-2.3212 3.708-2.7458z"/>
<path id="b" d="m32.957 90.75c1.8305-2.2268 4.982-2.1985 7.6146-2.2079 9.4639 0.1321 18.947-0.1227 28.411 0.1226 3.5383 0.0566 6.3502 3.3403 6.1237 6.822 0.0566 10.087 0.0661 20.174-0.0189 30.261 0.5096 4.915-6.2086 9.294-10.096 5.793-3.378-2.557-5.6331-6.294-8.9734-8.888-1.1605-1.057-2.2551 0.537-3.1043 1.198-8.143 8.218-16.333 16.399-24.533 24.57-1.3682 1.85-3.6799 1.708-5.718 1.397-2.9534-2.199-5.4161-4.992-7.9637-7.624-2.0381-1.916-1.472-5.294 0.5378-7.001 8.6808-8.945 17.748-17.532 26.344-26.562-2.859-3.953-7.2938-6.435-9.983-10.502-1.7644-2.3589-0.434-5.4727 1.3588-7.3787z"/>
<path id="a" d="m92.893 95.486c-0.2359-3.4912 2.5854-6.737 6.1143-6.8314 9.4641-0.2265 18.937 0.0094 28.411-0.1038 2.613 0.0283 5.793-0.0472 7.614 2.1796 2.067 1.8777 1.755 5.0387 1.189 7.5108-2.774 3.6795-6.746 6.2185-9.671 9.7655 0.217 1.067 0.783 1.991 1.613 2.708 8.313 8.04 16.456 16.258 24.58 24.477 2.019 1.707 2.585 5.104 0.538 7.01-3.076 3.133-5.963 6.615-9.851 8.757-1.774-0.897-3.425-2.001-4.793-3.463-7.841-7.898-15.73-15.748-23.571-23.637-0.877-0.66-1.915-2.264-3.113-1.207-3.982 3.028-6.332 8.001-11.021 10.115-4.0103 0.622-8.3696-2.793-8.0394-7.03-0.0755-10.077-0.066-20.173 0-30.251z"/>
<path id="e" d="m0 16.145c0-8.9166 7.2283-16.145 16.145-16.145h135.71c8.917 0 16.145 7.2283 16.145 16.145v127.81c0 8.916-7.228 16.145-16.145 16.145h-135.71c-8.9166 0-16.145-7.229-16.145-16.145v-127.81z"/>
</defs>
<g vectornator:layerName="ccc">
<path d="m0-3.2641e-14h168v160h-168v-160z" fill="#303030" opacity="0" vectornator:layerName="BG"/>
<g vectornator:layerName="Icons">
<g fill="#012ec5" opacity="0" vectornator:layerName="collect">
<path d="m22.465 9.6784c1.8683-1.0474 4.3593-0.50953 5.803 1.0285 8.6902 8.4166 17.003 17.23 25.759 25.571 2.0004 1.7267 3.595-1.4814 5.0198-2.5571 3.01-2.557 5.2179-7.4541 9.8225-6.8786 3.7365-0.0283 6.4635 3.8875 6.2559 7.407 0.0094 10.021 0.066 20.051-0.0378 30.081 0.1227 3.2175-2.8873 6.3879-6.1426 6.2369-10.417 0.0755-20.834 0.0755-31.251 0-4.0479 0.5379-7.3598-3.9158-6.8031-7.6429 2.1513-4.7367 6.9824-7.407 10.238-11.294 0.5755-1.387-0.7266-2.3211-1.5097-3.2458-8.2091-8.1713-16.446-16.314-24.58-24.552-1.9154-1.5097-2.1985-4.6046-0.5189-6.388 2.4061-2.8118 4.9348-5.6048 7.9448-7.7655z" opacity="1" vectornator:layerName="path 1"/>
<path d="m142 9.3009c1.613-0.3963 3.34-0.04718 4.538 1.1323 2.671 2.274 5.199 4.7556 7.332 7.5486 1.264 1.8022 0.802 4.4819-0.915 5.8501-8.153 8.2279-16.362 16.39-24.571 24.552-0.792 0.9247-2.104 1.8682-1.519 3.2458 2.944 3.3403 6.718 5.9162 9.36 9.5301 2.312 2.9911 0.01 7.3881-2.953 8.9355-4.02 1.3116-8.313 1.1229-12.474 1.0851-7.124-0.2264-14.295 0.453-21.381-0.3396-3.3591-0.151-6.6239-3.0289-6.5106-6.5106-0.0755-10.304-0.1038-20.617 0.0094-30.911 0.0661-4.6329 5.1141-8.0864 9.4355-6.1709 3.454 2.6137 5.954 6.237 9.257 9.0299 1.198 1.4814 2.66-0.2359 3.585-1.0662 7.69-7.7278 15.427-15.418 23.099-23.165 1.141-1.0096 2.189-2.3212 3.708-2.7458z" opacity="1" vectornator:layerName="path 2"/>
<path d="m32.957 90.75c1.8305-2.2268 4.982-2.1985 7.6146-2.2079 9.4639 0.1321 18.947-0.1227 28.411 0.1226 3.5383 0.0566 6.3502 3.3403 6.1237 6.822 0.0566 10.087 0.0661 20.174-0.0189 30.261 0.5096 4.915-6.2086 9.294-10.096 5.793-3.378-2.557-5.6331-6.294-8.9734-8.888-1.1605-1.057-2.2551 0.537-3.1043 1.198-8.143 8.218-16.333 16.399-24.533 24.57-1.3682 1.85-3.6799 1.708-5.718 1.397-2.9534-2.199-5.4161-4.992-7.9637-7.624-2.0381-1.916-1.472-5.294 0.5378-7.001 8.6808-8.945 17.748-17.532 26.344-26.562-2.859-3.953-7.2938-6.435-9.983-10.502-1.7644-2.3589-0.434-5.4727 1.3588-7.3787z" opacity="1" vectornator:layerName="path 3"/>
<path d="m92.893 95.486c-0.2359-3.4912 2.5854-6.737 6.1143-6.8314 9.4641-0.2265 18.937 0.0094 28.411-0.1038 2.613 0.0283 5.793-0.0472 7.614 2.1796 2.067 1.8777 1.755 5.0387 1.189 7.5108-2.774 3.6795-6.746 6.2185-9.671 9.7655 0.217 1.067 0.783 1.991 1.613 2.708 8.313 8.04 16.456 16.258 24.58 24.477 2.019 1.707 2.585 5.104 0.538 7.01-3.076 3.133-5.963 6.615-9.851 8.757-1.774-0.897-3.425-2.001-4.793-3.463-7.841-7.898-15.73-15.748-23.571-23.637-0.877-0.66-1.915-2.264-3.113-1.207-3.982 3.028-6.332 8.001-11.021 10.115-4.0103 0.622-8.3696-2.793-8.0394-7.03-0.0755-10.077-0.066-20.173 0-30.251z" opacity="1" vectornator:layerName="path 4"/>
</g>
<path d="m44.527 9.0223c5.97 0.6 11.89 1.89 17.94 1.61 9.68 0.4 19.29-1.59 28.97-0.74001 11.06-0.16 22.26 1.04 33.17-1.25 2.97 8.9 8.19 16.74 12.87 24.79 2.89 5.08 7.08 9.38 9.31 14.84 4.22 10.2 10.24 19.52 16.42 28.63 1.59 1.62-0.31 3.43-1.09 4.94-7.16 10.23-13.18 21.21-18.73 32.37-5.82 8.95-11.4 18.08-16.03 27.72-1 1.98-1.87 4.09-3.37 5.76-4.18 0.44-8.32-0.74-12.5-0.72-7.24-0.03-14.51-0.3-21.72 0.51-8.11 1.09-16.19-1.07-24.32-0.56-7.18-0.48-14.28 1.07-21.44 0.97-2.71-4.59-4.01-9.88-6.88-14.41-4.72-8.89-11.06-16.83-15.26-26-3.12-5.91-6.79-11.5-10.1-17.3-2.29-4.04-5.54-7.47-7.59-11.65 2.17-3.83 5.24-7.07 7.49-10.86 4.62-7.53 9-15.21 13.03-23.07 4.46-7.8 9.2-15.44 13.56-23.3 2.25-4.01 3.64-8.48 6.27-12.28m7.78 6.97c2.99 5.3 7.18 9.81 11.77 13.75 2.58 2.53 6.21 0.34 9.03-0.51 11.18-4.57 22.88-7.86 33.82-13.04-6.68-0.42-13.37-0.58-20.05-0.25-11.52 0.05-23.05-0.48-34.57 0.05m-4.49 0.82c-1.19 7.1-0.95 14.36 0.14 21.45 5.08-1.74 10.08-3.69 14.99-5.87-4.72-5.49-9.77-10.7-15.13-15.58m37.51 10.14c-5.86 1.86-11.62 4.09-17.12 6.85 5.26 5.97 10.55 11.93 16.25 17.49 5.71-6.29 11.59-12.42 17.35-18.67 4.64-5.23 9.93-9.93 13.81-15.8-10.46 2.2-20.17 6.82-30.29 10.13m16.07 9.3c-4.94 5.34-10.47 10.22-14.66 16.2 1.82 4.08 5.17 7.17 8.23 10.33 5.15 5.16 10.09 10.52 15.35 15.57 6.51-6.24 12.6-12.9 18.84-19.39 3.19-3.4 7-6.41 9.11-10.66-0.52-3.46-2.49-6.44-4.2-9.41-4.64-7.47-8.74-15.27-13.6-22.6-6.71 6.31-12.62 13.39-19.07 19.96m-68.52 7.19c4.12-1.28 8.19-2.71 12.24-4.17-0.07-5.41-0.03-10.83-0.4-16.23-4.58 6.41-8.57 13.23-11.84 20.4m14.77-2.84c-0.62 7.5-1.17 15.13-0.18 22.61 1.91 6.1 7.86 9.67 12 14.2 4.77-4.61 9.17-9.58 13.63-14.48 2.96-3.28 6.41-6.15 8.93-9.81-4.44-7.18-11.55-12.15-16.71-18.77-5.96 1.89-11.84 4.02-17.67 6.25m-16.64 6.62c3.99 5.5 8.66 10.47 13.88 14.82 0.25-6.75 0.14-13.5 0.15-20.26-4.8 1.48-9.53 3.19-14.03 5.44m-15.17 24.46c-1.48 2.71-3.79 5.73-2.6 8.97 1.99 5.32 5.54 9.87 8.15 14.88 2.39 4.6197 5.41 8.8597 8.54 13 4.6-4.64 9.4-9.1497 13.47-14.28 2.07-2.48 1.63-5.89 1.73-8.9-0.12-5.67 0.13-11.35-0.15-17.02 0.02-3.03-2.28-5.26-4.21-7.3-3.76-3.71-7.61-7.33-11.5-10.92-5.05 6.82-8.85 14.45-13.43 21.57m110.53-6.43c-4.9 4.94-9.79 9.89-14.48 15.04 5.93 6.61 12.16 12.94 18.64 19.01 2.09-7.63 3.62-15.39 5.08-23.16 1.5-8.08 3.87-16 4.51-24.22-5.06 3.93-9.38 8.67-13.75 13.33m-58.51 6.46c-2.23 2.32-4.87 4.46-6.1 7.52 2.33 3.81 5.63 6.87 8.68 10.07 4.96 4.99 9.89 10.01 14.9 14.95 7.94-7.7297 15.39-15.93 23.08-23.9-7.6-8.98-16.07-17.16-24.03-25.82-5.72 5.52-10.85 11.62-16.53 17.18m65.21 26.48c-1.59 4.7297 3 7.6697 6.02 10.34 4.69-7.37 8.73-15.12 13.22-22.61 1.38-2.44 2.89-4.9 3.46-7.68-0.12-2.38-1.48-4.45-2.54-6.51-3.29-5.57-6.62-11.13-10.27-16.47-4.44 14.02-6.44 28.66-9.89 42.93m-85.3-29.41c-1.09 6.84-0.94 13.84 0.3 20.65 3.28-3.15 6.86-6.16 9.1-10.19-2.16-4.25-5.97-7.29-9.4-10.46m0.25 25.09c-1.95 5.45-0.78 11.44-0.45 17.08 9.59-0.18 19.2 0.2 28.79-0.07 3.05 0.17 5.33-2.17 6.78-4.58-2-4.29-5.93-7.1897-9.04-10.63-4.79-4.79-8.68-10.66-14.56-14.24-4.35 3.57-8.66 7.54-11.52 12.44m38.76 12.61c2.54 1.99 5.09 4.68 8.6 4.45 11.1 0.13 22.21-0.11 33.32 0.03 0.34-2.5 0.92-4.98 0.89-7.51-0.88-2.06-2.49-3.6797-3.97-5.3097-5.11-5.3-10.12-10.7-15.29-15.94-8.11 7.84-16 15.91-23.55 24.28m-55.02 4.29c4.44 0.12 8.89 0.14 13.33 0.21-0.07-4.72-0.05-9.44-0.16-14.15-4.72 4.3097-9.19 8.9297-13.17 13.94m98.55 0.09c2.09-0.01 4.19-0.04 6.28-0.1-1.38-1.83-2.79-3.64-4.21-5.44-0.7 1.85-1.38 3.69-2.07 5.54m-47.67-0.55c1.55 0.36 3.1 0.71 4.65 1.07-0.06-0.9-0.19-2.71-0.25-3.62-1.47 0.85-2.94 1.69-4.4 2.55m-50.17 3.41c3.94 7.16 7.84 14.36 12.26 21.24 0.46-7.2 0.3-14.43 0.35-21.64-4.21-0.32-8.42-0.01-12.61 0.4m15.06-0.3c-0.62 6.62-0.54 13.28-0.51 19.92 0.15 2.71 0.01 5.92 2.27 7.85 9.47-8.38 17.7-18.08 26.35-27.3-9.35-0.59-18.75-0.96-28.11-0.47m27.26 5.23c-6.91 7.48-14.49 14.33-21.17 22.04 10.23 1.83 20.56 0.64 30.83 0.07 10.95 0.75 22.01 1.73 32.93-0.13-7.5-8.23-15.59-15.89-23.18-24.04-3.07-3.62-8.18-4.52-12.61-3.32-2.78 1-4.75 3.35-6.8 5.38m19.76-4.76c8.43 9.2 17.23 18.09 26.36 26.59 3.53-8.55 4.75-17.78 6.58-26.79-10.93-1.21-22.03-1.17-32.94 0.2m35.27-0.22c-1.07 4.7-2.04 9.44-2.29 14.27 3.63-4.21 6.13-9.2 8.44-14.22-2.05-0.03-4.1-0.04-6.15-0.05z" fill="#4cca06" opacity="0" vectornator:layerName="connect"/>
<path d="m65.503 7.737c3.51-3.64 9.32-2.76 13.12-0.08 7.11 4.81 12.36 11.87 17.01 18.98 2.49 3.62 4.04 7.97 7.2203 11.06 2.82 1.43 6.11 1.47 9.16 2.15 6.1 0.97 11.81 3.45 17.78 4.96 5.15-8.99 10.82-17.86 13.48-28 0.27-0.11 0.82-0.33 1.09-0.44-0.7 8.05-4.22 15.46-7.69 22.63-1.13 2.42-2.44 4.83-2.86 7.51 3.85 3.54 8.95 5.63 12.14 9.91 2.43 2.93 4.32 6.93 2.97 10.75-2.46 2.84-6.44 3.46-9.78 4.75 6.26 5.73 15.16 10.71 16.19 20 0.93 5.15-3.19 9.31-7.48 11.32-10.66 5.12-22.75 4.33-34.23 4.38-3.37-0.26-5.26 2.83-7.18 5.04-4.63 5.84-10.37 10.64-15.62 15.89 4.98 9.16 10.72 17.86 16.93 26.23-8.8803-6.14-14.07-15.86-19.86-24.67-5.77 2.9-11.59 6.66-18.3 6.45-2.35-0.06-5.27 0.14-6.69-2.15-3.15-3.76-0.25-8.48 1.01-12.39-8 3.99-17.06 7.17-26.06 4.98-4.66-1.4-6.57-6.71-6.59-11.15 0.93-11.6 6.63-22.08 12.61-31.81 0.8-1.66 2.28-3.46 1.58-5.4-1.21-4.29-3.2-8.31-4.25-12.65-1.21-4.28-1.61-8.76-3.09-12.96-1.33-0.77-2.94-0.62-4.41-0.72-9.43-0.2-18.73 1.72-28.12 2.32 10.3-4.5 21.73-4.3 32.7-5.46 0.54-7.67 0.08-16.87 6.3-22.48 4.66-3.97 9.15 2.39 12.44 5.21 1.3-8.4 1.84-17.98 8.48-24.16m7.31 17.14c-3.7 5.25-4.38 11.85-4.86 18.07 8.79-3.59 18.15-5.23 27.59-5.86-4.33-5.57-8.27-12.07-14.86-15.22-2.94-1.47-6.16 0.64-7.87 3.01m-24.08 11.98c-2.47 3.6-2.64 8.13-2.83 12.34 4.1 0.1 8.22 0.13 12.32 0.04-0.32-3.98-0.27-8.2-2.06-11.87-1.33-2.75-5.82-3.22-7.43-0.51m19.15 10.47c-0.01 17.33 4 34.42 9.58 50.75-1.75 0.76-3.49 1.53-5.23 2.3-4.85-11.44-8.86-23.3-11.13-35.53-0.7-2.98-1.05-6.45-3.66-8.47-2.96-3.08-7.61-2.55-11.49-3.09 0 5.19 0.83 10.32 2.03 15.35 3 11.73 7.77 23.64 16.66 32.17 2.27 1.87 5.16 4.87 8.36 3.35 5.38-2.62 9.87-6.69 14.58-10.32 8.38-6.53 15.29-14.64 22.83-22.06 1.37 0.95 2.71 1.96 4.01 3.02-4.87 7.56-11.51 13.65-17.45 20.33-4.2 4.64-9.38 8.3-13.3 13.22 5.89 0.63 11.76-0.52 17.15-2.87-5.2703 3.64-11.5 5.37-17.84 5.89 1.23 3.56 2.67 7.06 4.31 10.45 5.85-3.79 11.12-8.38 15.85-13.49 8.87-9.52 16.78-21.51 16.37-35.04-5.56-2.94-11.14-5.88-17.04-8.08-10.18-4.03-20.92-6.29-31.53-8.85 0.02-1.78 0.1-3.55 0.25-5.32 8.27 0.16 16.25 2.59 24.28 4.32 6.7903 1.45 13.26 4.12 20.09 5.44-2.15-4.33-5.1-8.16-7.98-12.01 4.4 3.09 8.12 7.02 11.27 11.37 2.23-2.84 4.36-5.76 6.42-8.72-3.39-2.08-6.91-4.01-10.74-5.18-10.83-3.4-22.32-4.87-33.64-3.73-4.66 0.53-9 2.45-13.01 4.8m54.85 16.56c3.98 1.9 7.93 4.96 12.57 4.46 1.8-0.28 4.3-1.43 3.91-3.64-0.23-5.54-5.71-8.6-9.66-11.56-2.43 3.48-4.66 7.09-6.82 10.74m0.47 11.63c-0.63 4.35-1.02 8.77-2.35 12.98-1.46 4.79-3.95 9.17-5.92 13.75 6.61-0.55 13.59-1.08 19.41-4.59 2.25-1.29 3.49-4.04 2.59-6.55-1.94-7.02-8.06-11.6-13.73-15.59m-74.6 11.48c-3.16 6.43-6.62 13.44-5.49 20.82 1.28 3.24 5.26 4.49 8.49 4.5 5.65-0.23 10.84-2.79 16.07-4.65-2.85-2.8-5.91-5.37-8.78-8.14-3.87-3.81-6.79-8.41-10.29-12.53m17.8 37.05c1.38 1.16 2.81 2.3 4.41 3.15 4.53 0.85 8.78-1.54 12.81-3.24-1.78-3.85-3.77-7.6-5.95-11.25-4.71 2.71-9.04 6.24-11.27 11.34z" fill="#990202" vectornator:layerName="create"/>
</g>
<g opacity="0" vectornator:layerName="Icons outline">
<g opacity="0" vectornator:layerName="collect">
<g opacity="1" vectornator:layerName="path 1">
<use fill="#012ec5" xlink:href="#d"/>
<mask id="j" x="13.4146" y="9.13607" width="61.7345" height="61.4873" maskUnits="userSpaceOnUse">
<rect x="13.415" y="9.1361" width="61.734" height="61.487"/>
<use fill="#ffffff" fill-rule="evenodd" xlink:href="#d"/>
</mask>
<use fill="none" mask="url(#j)" stroke="#ffffff" stroke-linecap="butt" stroke-linejoin="round" xlink:href="#d"/>
</g>
<g opacity="1" vectornator:layerName="path 2">
<use fill="#012ec5" xlink:href="#c"/>
<mask id="i" x="92.8358" y="9.14448" width="61.7495" height="62.0927" maskUnits="userSpaceOnUse">
<rect x="92.836" y="9.1445" width="61.75" height="62.093"/>
<use fill="#ffffff" fill-rule="evenodd" xlink:href="#c"/>
</mask>
<use fill="none" mask="url(#i)" stroke="#ffffff" stroke-linecap="butt" stroke-linejoin="round" xlink:href="#c"/>
</g>
<g opacity="1" vectornator:layerName="path 3">
<use fill="#012ec5" xlink:href="#b"/>
<mask id="h" x="13.4223" y="88.5417" width="61.7278" height="61.4626" maskUnits="userSpaceOnUse">
<rect x="13.422" y="88.542" width="61.728" height="61.463"/>
<use fill="#ffffff" fill-rule="evenodd" xlink:href="#b"/>
</mask>
<use fill="none" mask="url(#h)" stroke="#ffffff" stroke-linecap="butt" stroke-linejoin="round" xlink:href="#b"/>
</g>
<g opacity="1" vectornator:layerName="path 4">
<use fill="#012ec5" xlink:href="#a"/>
<mask id="g" x="92.8395" y="88.5511" width="61.7253" height="62.4075" maskUnits="userSpaceOnUse">
<rect x="92.84" y="88.551" width="61.725" height="62.408"/>
<use fill="#ffffff" fill-rule="evenodd" xlink:href="#a"/>
</mask>
<use fill="none" mask="url(#g)" stroke="#ffffff" stroke-linecap="butt" stroke-linejoin="round" xlink:href="#a"/>
</g>
</g>
<path d="m44.527 9.0223c5.97 0.6 11.89 1.89 17.94 1.61 9.68 0.4 19.29-1.59 28.97-0.74001 11.06-0.16 22.26 1.04 33.17-1.25 2.97 8.9 8.19 16.74 12.87 24.79 2.89 5.08 7.08 9.38 9.31 14.84 4.22 10.2 10.24 19.52 16.42 28.63 1.59 1.62-0.31 3.43-1.09 4.94-7.16 10.23-13.18 21.21-18.73 32.37-5.82 8.95-11.4 18.08-16.03 27.72-1 1.98-1.87 4.09-3.37 5.76-4.18 0.44-8.32-0.74-12.5-0.72-7.24-0.03-14.51-0.3-21.72 0.51-8.11 1.09-16.19-1.07-24.32-0.56-7.18-0.48-14.28 1.07-21.44 0.97-2.71-4.59-4.01-9.88-6.88-14.41-4.72-8.89-11.06-16.83-15.26-26-3.12-5.91-6.79-11.5-10.1-17.3-2.29-4.04-5.54-7.47-7.59-11.65 2.17-3.83 5.24-7.07 7.49-10.86 4.62-7.53 9-15.21 13.03-23.07 4.46-7.8 9.2-15.44 13.56-23.3 2.25-4.01 3.64-8.48 6.27-12.28m7.78 6.97c2.99 5.3 7.18 9.81 11.77 13.75 2.58 2.53 6.21 0.34 9.03-0.51 11.18-4.57 22.88-7.86 33.82-13.04-6.68-0.42-13.37-0.58-20.05-0.25-11.52 0.05-23.05-0.48-34.57 0.05m-4.49 0.82c-1.19 7.1-0.95 14.36 0.14 21.45 5.08-1.74 10.08-3.69 14.99-5.87-4.72-5.49-9.77-10.7-15.13-15.58m37.51 10.14c-5.86 1.86-11.62 4.09-17.12 6.85 5.26 5.97 10.55 11.93 16.25 17.49 5.71-6.29 11.59-12.42 17.35-18.67 4.64-5.23 9.93-9.93 13.81-15.8-10.46 2.2-20.17 6.82-30.29 10.13m16.07 9.3c-4.94 5.34-10.47 10.22-14.66 16.2 1.82 4.08 5.17 7.17 8.23 10.33 5.15 5.16 10.09 10.52 15.35 15.57 6.51-6.24 12.6-12.9 18.84-19.39 3.19-3.4 7-6.41 9.11-10.66-0.52-3.46-2.49-6.44-4.2-9.41-4.64-7.47-8.74-15.27-13.6-22.6-6.71 6.31-12.62 13.39-19.07 19.96m-68.52 7.19c4.12-1.28 8.19-2.71 12.24-4.17-0.07-5.41-0.03-10.83-0.4-16.23-4.58 6.41-8.57 13.23-11.84 20.4m14.77-2.84c-0.62 7.5-1.17 15.13-0.18 22.61 1.91 6.1 7.86 9.67 12 14.2 4.77-4.61 9.17-9.58 13.63-14.48 2.96-3.28 6.41-6.15 8.93-9.81-4.44-7.18-11.55-12.15-16.71-18.77-5.96 1.89-11.84 4.02-17.67 6.25m-16.64 6.62c3.99 5.5 8.66 10.47 13.88 14.82 0.25-6.75 0.14-13.5 0.15-20.26-4.8 1.48-9.53 3.19-14.03 5.44m-15.17 24.46c-1.48 2.71-3.79 5.73-2.6 8.97 1.99 5.32 5.54 9.87 8.15 14.88 2.39 4.6197 5.41 8.8597 8.54 13 4.6-4.64 9.4-9.1497 13.47-14.28 2.07-2.48 1.63-5.89 1.73-8.9-0.12-5.67 0.13-11.35-0.15-17.02 0.02-3.03-2.28-5.26-4.21-7.3-3.76-3.71-7.61-7.33-11.5-10.92-5.05 6.82-8.85 14.45-13.43 21.57m110.53-6.43c-4.9 4.94-9.79 9.89-14.48 15.04 5.93 6.61 12.16 12.94 18.64 19.01 2.09-7.63 3.62-15.39 5.08-23.16 1.5-8.08 3.87-16 4.51-24.22-5.06 3.93-9.38 8.67-13.75 13.33m-58.51 6.46c-2.23 2.32-4.87 4.46-6.1 7.52 2.33 3.81 5.63 6.87 8.68 10.07 4.96 4.99 9.89 10.01 14.9 14.95 7.94-7.7297 15.39-15.93 23.08-23.9-7.6-8.98-16.07-17.16-24.03-25.82-5.72 5.52-10.85 11.62-16.53 17.18m65.21 26.48c-1.59 4.7297 3 7.6697 6.02 10.34 4.69-7.37 8.73-15.12 13.22-22.61 1.38-2.44 2.89-4.9 3.46-7.68-0.12-2.38-1.48-4.45-2.54-6.51-3.29-5.57-6.62-11.13-10.27-16.47-4.44 14.02-6.44 28.66-9.89 42.93m-85.3-29.41c-1.09 6.84-0.94 13.84 0.3 20.65 3.28-3.15 6.86-6.16 9.1-10.19-2.16-4.25-5.97-7.29-9.4-10.46m0.25 25.09c-1.95 5.45-0.78 11.44-0.45 17.08 9.59-0.18 19.2 0.2 28.79-0.07 3.05 0.17 5.33-2.17 6.78-4.58-2-4.29-5.93-7.1897-9.04-10.63-4.79-4.79-8.68-10.66-14.56-14.24-4.35 3.57-8.66 7.54-11.52 12.44m38.76 12.61c2.54 1.99 5.09 4.68 8.6 4.45 11.1 0.13 22.21-0.11 33.32 0.03 0.34-2.5 0.92-4.98 0.89-7.51-0.88-2.06-2.49-3.6797-3.97-5.3097-5.11-5.3-10.12-10.7-15.29-15.94-8.11 7.84-16 15.91-23.55 24.28m-55.02 4.29c4.44 0.12 8.89 0.14 13.33 0.21-0.07-4.72-0.05-9.44-0.16-14.15-4.72 4.3097-9.19 8.9297-13.17 13.94m98.55 0.09c2.09-0.01 4.19-0.04 6.28-0.1-1.38-1.83-2.79-3.64-4.21-5.44-0.7 1.85-1.38 3.69-2.07 5.54m-47.67-0.55c1.55 0.36 3.1 0.71 4.65 1.07-0.06-0.9-0.19-2.71-0.25-3.62-1.47 0.85-2.94 1.69-4.4 2.55m-50.17 3.41c3.94 7.16 7.84 14.36 12.26 21.24 0.46-7.2 0.3-14.43 0.35-21.64-4.21-0.32-8.42-0.01-12.61 0.4m15.06-0.3c-0.62 6.62-0.54 13.28-0.51 19.92 0.15 2.71 0.01 5.92 2.27 7.85 9.47-8.38 17.7-18.08 26.35-27.3-9.35-0.59-18.75-0.96-28.11-0.47m27.26 5.23c-6.91 7.48-14.49 14.33-21.17 22.04 10.23 1.83 20.56 0.64 30.83 0.07 10.95 0.75 22.01 1.73 32.93-0.13-7.5-8.23-15.59-15.89-23.18-24.04-3.07-3.62-8.18-4.52-12.61-3.32-2.78 1-4.75 3.35-6.8 5.38m19.76-4.76c8.43 9.2 17.23 18.09 26.36 26.59 3.53-8.55 4.75-17.78 6.58-26.79-10.93-1.21-22.03-1.17-32.94 0.2m35.27-0.22c-1.07 4.7-2.04 9.44-2.29 14.27 3.63-4.21 6.13-9.2 8.44-14.22-2.05-0.03-4.1-0.04-6.15-0.05z" fill="#4cca06" opacity="0" stroke="#fff" stroke-linecap="butt" stroke-linejoin="round" stroke-width=".5" vectornator:layerName="connect"/>
<path d="m65.503 7.737c3.51-3.64 9.32-2.76 13.12-0.08 7.11 4.81 12.36 11.87 17.01 18.98 2.49 3.62 4.04 7.97 7.2203 11.06 2.82 1.43 6.11 1.47 9.16 2.15 6.1 0.97 11.81 3.45 17.78 4.96 5.15-8.99 10.82-17.86 13.48-28 0.27-0.11 0.82-0.33 1.09-0.44-0.7 8.05-4.22 15.46-7.69 22.63-1.13 2.42-2.44 4.83-2.86 7.51 3.85 3.54 8.95 5.63 12.14 9.91 2.43 2.93 4.32 6.93 2.97 10.75-2.46 2.84-6.44 3.46-9.78 4.75 6.26 5.73 15.16 10.71 16.19 20 0.93 5.15-3.19 9.31-7.48 11.32-10.66 5.12-22.75 4.33-34.23 4.38-3.37-0.26-5.26 2.83-7.18 5.04-4.63 5.84-10.37 10.64-15.62 15.89 4.98 9.16 10.72 17.86 16.93 26.23-8.8803-6.14-14.07-15.86-19.86-24.67-5.77 2.9-11.59 6.66-18.3 6.45-2.35-0.06-5.27 0.14-6.69-2.15-3.15-3.76-0.25-8.48 1.01-12.39-8 3.99-17.06 7.17-26.06 4.98-4.66-1.4-6.57-6.71-6.59-11.15 0.93-11.6 6.63-22.08 12.61-31.81 0.8-1.66 2.28-3.46 1.58-5.4-1.21-4.29-3.2-8.31-4.25-12.65-1.21-4.28-1.61-8.76-3.09-12.96-1.33-0.77-2.94-0.62-4.41-0.72-9.43-0.2-18.73 1.72-28.12 2.32 10.3-4.5 21.73-4.3 32.7-5.46 0.54-7.67 0.08-16.87 6.3-22.48 4.66-3.97 9.15 2.39 12.44 5.21 1.3-8.4 1.84-17.98 8.48-24.16m7.31 17.14c-3.7 5.25-4.38 11.85-4.86 18.07 8.79-3.59 18.15-5.23 27.59-5.86-4.33-5.57-8.27-12.07-14.86-15.22-2.94-1.47-6.16 0.64-7.87 3.01m-24.08 11.98c-2.47 3.6-2.64 8.13-2.83 12.34 4.1 0.1 8.22 0.13 12.32 0.04-0.32-3.98-0.27-8.2-2.06-11.87-1.33-2.75-5.82-3.22-7.43-0.51m19.15 10.47c-0.01 17.33 4 34.42 9.58 50.75-1.75 0.76-3.49 1.53-5.23 2.3-4.85-11.44-8.86-23.3-11.13-35.53-0.7-2.98-1.05-6.45-3.66-8.47-2.96-3.08-7.61-2.55-11.49-3.09 0 5.19 0.83 10.32 2.03 15.35 3 11.73 7.77 23.64 16.66 32.17 2.27 1.87 5.16 4.87 8.36 3.35 5.38-2.62 9.87-6.69 14.58-10.32 8.38-6.53 15.29-14.64 22.83-22.06 1.37 0.95 2.71 1.96 4.01 3.02-4.87 7.56-11.51 13.65-17.45 20.33-4.2 4.64-9.38 8.3-13.3 13.22 5.89 0.63 11.76-0.52 17.15-2.87-5.2703 3.64-11.5 5.37-17.84 5.89 1.23 3.56 2.67 7.06 4.31 10.45 5.85-3.79 11.12-8.38 15.85-13.49 8.87-9.52 16.78-21.51 16.37-35.04-5.56-2.94-11.14-5.88-17.04-8.08-10.18-4.03-20.92-6.29-31.53-8.85 0.02-1.78 0.1-3.55 0.25-5.32 8.27 0.16 16.25 2.59 24.28 4.32 6.7903 1.45 13.26 4.12 20.09 5.44-2.15-4.33-5.1-8.16-7.98-12.01 4.4 3.09 8.12 7.02 11.27 11.37 2.23-2.84 4.36-5.76 6.42-8.72-3.39-2.08-6.91-4.01-10.74-5.18-10.83-3.4-22.32-4.87-33.64-3.73-4.66 0.53-9 2.45-13.01 4.8m54.85 16.56c3.98 1.9 7.93 4.96 12.57 4.46 1.8-0.28 4.3-1.43 3.91-3.64-0.23-5.54-5.71-8.6-9.66-11.56-2.43 3.48-4.66 7.09-6.82 10.74m0.47 11.63c-0.63 4.35-1.02 8.77-2.35 12.98-1.46 4.79-3.95 9.17-5.92 13.75 6.61-0.55 13.59-1.08 19.41-4.59 2.25-1.29 3.49-4.04 2.59-6.55-1.94-7.02-8.06-11.6-13.73-15.59m-74.6 11.48c-3.16 6.43-6.62 13.44-5.49 20.82 1.28 3.24 5.26 4.49 8.49 4.5 5.65-0.23 10.84-2.79 16.07-4.65-2.85-2.8-5.91-5.37-8.78-8.14-3.87-3.81-6.79-8.41-10.29-12.53m17.8 37.05c1.38 1.16 2.81 2.3 4.41 3.15 4.53 0.85 8.78-1.54 12.81-3.24-1.78-3.85-3.77-7.6-5.95-11.25-4.71 2.71-9.04 6.24-11.27 11.34z" fill="#990202" opacity="1" stroke="#fff" stroke-linecap="butt" stroke-linejoin="round" stroke-width=".5" vectornator:layerName="create"/>
</g>
<g vectornator:layerName="Frame rnd 2pt">
<mask id="f" x="0" y="-9.48756e-15" width="168" height="160.095" maskUnits="userSpaceOnUse">
<rect y="-9.4876e-15" width="168" height="160.1"/>
<use fill="#ffffff" fill-rule="evenodd" xlink:href="#e"/>
</mask>
<use fill="none" mask="url(#f)" stroke="#ffffff" stroke-linecap="butt" stroke-linejoin="round" stroke-width="4" xlink:href="#e"/>
</g>
</g>
</svg>
