<?xml version="1.0" encoding="UTF-8" standalone="no"?>
<!DOCTYPE svg PUBLIC "-//W3C//DTD SVG 1.1//EN" "http://www.w3.org/Graphics/SVG/1.1/DTD/svg11.dtd">
<!-- Created with Vectornator (http://vectornator.io/) -->
<svg height="100%" stroke-miterlimit="10" style="fill-rule:nonzero;clip-rule:evenodd;stroke-linecap:round;stroke-linejoin:round;" version="1.1" viewBox="0 0 2160 3840" width="100%" xml:space="preserve" xmlns="http://www.w3.org/2000/svg" xmlns:vectornator="http://vectornator.io" xmlns:xlink="http://www.w3.org/1999/xlink">
<defs>
<path d="M2160 163.044L2160 4028L-2.24773e-13 4028L-6.18456e-13 163.044L2160 163.044Z" id="Fill"/>
<linearGradient gradientTransform="matrix(0.5625 6.17349e-17 7.09134e-17 1.78933 -7.82165e-13 163.044)" gradientUnits="userSpaceOnUse" id="LinearGradient" x1="1927.99" x2="1911.12" y1="404.047" y2="2169.63">
<stop offset="0.400115" stop-color="#1d1d1d"/>
<stop offset="1" stop-color="#242e30"/>
</linearGradient>
<path d="M3000 163.044L3000 2323.04L-840 2323.04L-840 163.044L3000 163.044Z" id="Fill_2"/>
<linearGradient gradientTransform="matrix(1 -7.4815e-18 -7.4815e-18 1 -840 163.044)" gradientUnits="userSpaceOnUse" id="LinearGradient_2" x1="1927.99" x2="1911.12" y1="404.047" y2="2169.63">
<stop offset="0.400115" stop-color="#1d1d1d"/>
<stop offset="1" stop-color="#242e30"/>
</linearGradient>
<linearGradient gradientTransform="matrix(1.35052 -0.202294 0.211657 1.34908 -1748.16 168.217)" gradientUnits="userSpaceOnUse" id="LinearGradient_3" x1="1792.73" x2="2673.2" y1="974.815" y2="1837.46">
<stop offset="0" stop-color="#1d1d1d"/>
<stop offset="1" stop-color="#376b77"/>
</linearGradient>
<linearGradient gradientTransform="matrix(0.696778 0.712747 -0.707897 0.701705 505.572 -889.792)" gradientUnits="userSpaceOnUse" id="LinearGradient_4" x1="2721.62" x2="4317.09" y1="993.168" y2="3042.49">
<stop offset="0" stop-color="#1d1d1d"/>
<stop offset="1" stop-color="#376b77"/>
</linearGradient>
<linearGradient gradientTransform="matrix(-0.611152 0.606927 -0.611152 -0.606927 2917.6 733.699)" gradientUnits="userSpaceOnUse" id="LinearGradient_5" x1="1250.95" x2="2998.89" y1="-205.347" y2="4740.51">
<stop offset="0" stop-color="#1d1d1d"/>
<stop offset="1" stop-color="#376b77"/>
</linearGradient>
<linearGradient gradientTransform="matrix(-0.270507 0.268637 -0.270507 -0.268637 1891.63 1015.87)" gradientUnits="userSpaceOnUse" id="LinearGradient_6" x1="1529.74" x2="3641.62" y1="390.642" y2="8825.23">
<stop offset="0" stop-color="#1d1d1d"/>
<stop offset="1" stop-color="#376b77"/>
</linearGradient>
<linearGradient gradientTransform="matrix(1.00803 1.35095e-17 1.30687e-17 1.00804 -855.416 154.368)" gradientUnits="userSpaceOnUse" id="LinearGradient_7" x1="1641.21" x2="1637.56" y1="704.771" y2="1233.87">
<stop offset="3.49553e-05" stop-color="#fddf19"/>
<stop offset="1" stop-color="#e94420"/>
</linearGradient>
<linearGradient gradientTransform="matrix(1.00803 0 0 1.00804 -855.416 154.368)" gradientUnits="userSpaceOnUse" id="LinearGradient_8" x1="1656.3" x2="1659.28" y1="847.753" y2="991.669">
<stop offset="0.00426454" stop-color="#fde019"/>
<stop offset="1" stop-color="#e94420"/>
</linearGradient>
<linearGradient gradientTransform="matrix(1.00803 1.35095e-17 1.30687e-17 1.00804 -855.416 154.368)" gradientUnits="userSpaceOnUse" id="LinearGradient_9" x1="1641.21" x2="1637.56" y1="704.771" y2="1233.87">
<stop offset="3.49553e-05" stop-color="#fddf19"/>
<stop offset="1" stop-color="#e94420"/>
</linearGradient>
<linearGradient gradientTransform="matrix(1.00803 0 0 1.00804 -855.416 154.368)" gradientUnits="userSpaceOnUse" id="LinearGradient_10" x1="1656.3" x2="1659.28" y1="847.753" y2="991.669">
<stop offset="0.00426454" stop-color="#fde019"/>
<stop offset="1" stop-color="#e94420"/>
</linearGradient>
<linearGradient gradientTransform="matrix(1.00803 0 0 1.00804 -855.416 154.368)" gradientUnits="userSpaceOnUse" id="LinearGradient_11" x1="1920.11" x2="1922.25" y1="2323.22" y2="1074.46">
<stop offset="0" stop-color="#00d8da"/>
<stop offset="1" stop-color="#004a69"/>
</linearGradient>
<linearGradient gradientTransform="matrix(1.00803 0 0 1.00804 -855.416 154.368)" gradientUnits="userSpaceOnUse" id="LinearGradient_12" x1="1919.95" x2="1919.51" y1="263.097" y2="1238.16">
<stop offset="0" stop-color="#00d8da"/>
<stop offset="1" stop-color="#004a69"/>
</linearGradient>
</defs>
<path d="M0 0L2160 0L2160 3840L0 3840L0 0Z" fill="#2f2f2f" fill-rule="nonzero" opacity="1" stroke="none"/>
<clipPath id="ArtboardFrame">
<rect height="3840" width="2160" x="0" y="0"/>
</clipPath>
<g clip-path="url(#ArtboardFrame)" id="GNTV-Landing-Page" vectornator:layerName="GNTV Landing Page">
<g opacity="1" vectornator:layerName="BG Gradient">
<use fill="url(#LinearGradient)" fill-rule="nonzero" stroke="none" xlink:href="#Fill"/>
<mask height="3865.16" id="StrokeMask" maskUnits="userSpaceOnUse" width="2160.2" x="-0.1" y="162.944">
<rect fill="#ffffff" height="3865.16" stroke="none" width="2160.2" x="-0.1" y="162.944"/>
<use fill="#000000" fill-rule="evenodd" stroke="none" xlink:href="#Fill"/>
</mask>
<use fill="none" mask="url(#StrokeMask)" stroke="#000000" stroke-linecap="butt" stroke-linejoin="round" stroke-width="0.2" xlink:href="#Fill"/>
</g>
<g opacity="0" vectornator:layerName="BG Gradient 1">
<use fill="url(#LinearGradient_2)" fill-rule="nonzero" stroke="none" xlink:href="#Fill_2"/>
<mask height="2160.2" id="StrokeMask_2" maskUnits="userSpaceOnUse" width="3840.2" x="-840.1" y="162.944">
<rect fill="#ffffff" height="2160.2" stroke="none" width="3840.2" x="-840.1" y="162.944"/>
<use fill="#000000" fill-rule="evenodd" stroke="none" xlink:href="#Fill_2"/>
</mask>
<use fill="none" mask="url(#StrokeMask_2)" stroke="#000000" stroke-linecap="butt" stroke-linejoin="round" stroke-width="0.2" xlink:href="#Fill_2"/>
</g>
<g opacity="1" vectornator:layerName="BG Circles">
<path d="M-218.958 289.023C306.978-427.417 1314.12-581.85 2030.56-55.9138C2747 470.023 2901.44 1477.17 2375.5 2193.61C1849.56 2910.05 842.418 3064.48 125.979 2538.54C-590.461 2012.61-744.894 1005.46-218.958 289.023Z" fill="url(#LinearGradient_3)" fill-rule="nonzero" opacity="1" stroke="none" vectornator:layerName="BG Oval 1"/>
<path d="M1087.5 66.755C1736.2 71.8543 2257.93 601.857 2252.83 1250.55C2247.73 1899.24 1717.73 2420.97 1069.04 2415.87C420.346 2410.78-101.389 1880.77-96.2892 1232.08C-91.1899 583.39 438.812 61.6557 1087.5 66.755Z" fill="url(#LinearGradient_4)" fill-rule="nonzero" opacity="1" stroke="none" vectornator:layerName="BG Oval 2"/>
<path d="M2095 1243.04C2095 1803.61 1640.57 2258.04 1080 2258.04C519.431 2258.04 65 1803.61 65 1243.04C65 682.475 519.431 228.044 1080 228.044C1640.57 228.044 2095 682.475 2095 1243.04Z" fill="url(#LinearGradient_5)" fill-rule="nonzero" opacity="1" stroke="none" vectornator:layerName="BG Oval 3"/>
<path d="M1527.53 1241.31C1527.53 1489.43 1326.39 1690.57 1078.27 1690.57C830.152 1690.57 629.013 1489.43 629.013 1241.31C629.013 993.197 830.152 792.057 1078.27 792.057C1326.39 792.057 1527.53 993.197 1527.53 1241.31Z" fill="url(#LinearGradient_6)" fill-rule="nonzero" opacity="1" stroke="none" vectornator:layerName="BG Oval 4"/>
<path d="M3317.38 3366.26C3317.38 4611.36 2315.67 5620.72 1080 5620.72C-155.674 5620.72-1157.38 4611.36-1157.38 3366.26C-1157.38 2121.16-155.674 1111.81 1080 1111.81C2315.67 1111.81 3317.38 2121.16 3317.38 3366.26Z" fill="#004a69" fill-rule="nonzero" opacity="0.301417" stroke="none" vectornator:blendMode="overlay" vectornator:layerName="BG Oval 5"/>
</g>
<g opacity="1" vectornator:layerName="GNTV Logo">
<g opacity="0" vectornator:layerName="TV BAK">
<path d="M1022.91 1111.7C1008.08 1112.05 993.298 1112.19 978.602 1112.79L919.888 1214.64L917.431 1216.02L915.131 1214.64L861.235 1121.63C847.507 1122.84 833.879 1124.57 820.294 1126L884.702 1236.81L884.702 1239.36L883.663 1241.57L882.371 1245.03L881.457 1248.66L880.859 1252.37L880.637 1256.09L880.859 1259.81L881.457 1263.49L882.497 1266.99L883.883 1270.71L885.614 1274.2L887.821 1277.45L890.278 1280.47L893.175 1283.12L896.199 1285.58L899.571 1287.65L903.036 1289.29L907.918 1290.9L912.675 1291.72L917.684 1291.94L922.441 1291.59L926.504 1290.68L930.315 1289.39L933.938 1287.65L937.403 1285.58L940.553 1283.12L943.451 1280.35L946.003 1277.2L948.208 1273.83L950.192 1269.76L951.704 1265.6L952.619 1261.29L952.965 1256.88L952.839 1252.47L952.146 1248.06L950.885 1243.77L949.5 1240.28L949.593 1237.98L1022.91 1111.7ZM654.271 1150.66C634.387 1154.51 628.29 1156.09 605.577 1161.38L606.012 1292.07L654.145 1291.94L654.271 1150.66ZM918.376 1238.76L921.275 1239.02L924.392 1240.06L924.992 1240.28L927.543 1241.79L928.015 1242.13L929.969 1243.99L930.442 1244.47L932.08 1246.8L932.3 1247.27L933.465 1249.82L934.158 1252.94L934.284 1255.15L934.158 1257.48L933.685 1259.68L932.899 1261.76L931.827 1263.75L930.568 1265.6L929.054 1267.21L927.323 1268.5L924.519 1270.01L921.495 1271.05L920.927 1271.18L918.03 1271.4L915.006 1271.18L914.66 1271.05L913.146 1270.71L911.634 1270.23L908.264 1268.28L907.792 1267.9L905.714 1265.95L904.453 1264.44L903.634 1263.05L902.248 1259.68L902.122 1259.08L901.649 1256.44L901.649 1255.84L901.775 1252.94L902.342 1249.92L903.161 1247.84L904.326 1245.98L905.714 1244.25L907.225 1242.73L908.957 1241.35L910.815 1240.28L912.8 1239.49L915.131 1238.89L918.376 1238.76Z" fill="url(#LinearGradient_7)" fill-rule="nonzero" opacity="1" stroke="none" vectornator:layerName="TV Bot"/>
<path d="M776.149 975.793L772.999 975.92L769.88 976.171L766.856 976.864L764.084 977.558L763.959 977.652L760.713 978.943L757.69 980.455L754.886 982.187L752.24 984.298L749.689 986.598L747.483 989.055L745.372 991.828L743.766 994.725L742.254 997.529L741.214 1000.52L740.27 1003.55L739.702 1006.7L739.355 1009.81L739.355 1013.09L739.577 1016.21L740.048 1019.36L740.867 1022.48L742.002 1025.5L743.294 1028.4L744.901 1031.3L746.759 1033.85L748.87 1036.4L751.201 1038.61L753.625 1040.72L756.052 1042.45L758.509 1043.84L761.155 1045.13L763.959 1046.17L766.73 1046.99L769.66 1047.68L772.557 1048.03L773.818 1048.03L776.022 1049.41L820.24 1126.03C833.826 1124.6 847.69 1122.91 861.418 1121.7L810.17 1033.41L810.17 1030.73L812.501 1029.31L1022.52 1029.31L1024.85 1030.73L1024.85 1033.41L978.374 1112.78C993.071 1112.18 1008.19 1112.03 1023.01 1111.68L1058.84 1049.41L1061.05 1048.03L1063.85 1047.9L1067.66 1047.33L1071.5 1046.39L1075.22 1044.88L1079.06 1042.92L1082.65 1040.47L1085.9 1037.57L1088.8 1034.32L1091.13 1030.95L1093.11 1027.36L1094.62 1023.52L1095.76 1019.58L1096.36 1015.52L1096.58 1011.45L1096.23 1007.39L1095.54 1003.33L1094.37 999.482L1092.86 995.891L1090.91 992.521L1088.58 989.275L1086.02 986.378L1083.13 983.825L1079.88 981.494L1076.51 979.51L1073.83 978.377L1071.16 977.432L1068.38 976.612L1065.58 976.171L1062.68 975.92L1059.78 975.793L1056.98 975.92L1054.08 976.393L1050.71 977.085L1047.47 978.124L1044.44 979.51L1041.45 981.148L1038.65 983.006L1035.97 985.213L1033.67 987.637L1032.5 989.055L1030.39 990.094L805.508 990.094L803.43 989.149L801.445 986.724L798.452 984.047L795.176 981.621L791.711 979.636L787.994 978.029L784.15 976.864L780.087 976.044L776.149 975.793ZM720.297 989.275L538.253 989.402L538.126 989.843L538.253 1026.89L538.726 1027.01L602.767 1026.89L604.592 1027.9L605.57 1029.69L605.577 1161.4C624.384 1157.53 635.068 1154.08 654.271 1150.66L654.271 1029.69L655.091 1027.71L656.949 1026.89L720.644 1026.89L720.77 1026.89L720.896 1026.42L720.77 989.402L720.297 989.275ZM774.637 994.159L777.534 994.159L780.338 994.632L782.984 995.671L783.457 995.891L786.261 997.624L786.702 998.095L788.813 1000.18L789.16 1000.65L790.765 1002.98L791.458 1004.71L792.057 1006.44L792.403 1008.21L792.53 1009.81L792.183 1013.66L792.057 1014.23L791.238 1016.9L790.325 1018.67L789.38 1020.15L787.521 1022.13L785.315 1023.99L782.764 1025.38L780.087 1026.32L777.063 1026.89L773.818 1026.76L773.376 1026.67L770.794 1026.07L767.895 1024.9L767.329 1024.68L764.778 1022.83L764.43 1022.48L762.445 1020.27L762.099 1019.93L760.587 1017.38L760.367 1016.9L759.548 1014.13L759.075 1011.45L759.202 1008.43L759.768 1005.53L760.933 1002.85L761.28 1002.29L763.14 999.734L763.486 999.387L765.691 997.403L766.163 997.056L768.714 995.671L769.187 995.418L771.96 994.505L774.637 994.159ZM1060.6 994.159L1063.38 994.159L1066.05 994.725L1068.73 995.671L1071.75 997.529L1073.83 999.482L1075.69 1002.03L1077.08 1004.96L1077.9 1007.96L1078.02 1010.98L1077.68 1013.88L1076.73 1016.81L1076.51 1017.38L1075 1020.05L1074.65 1020.4L1072.79 1022.48L1072.32 1022.83L1070.12 1024.56L1069.64 1024.81L1067.09 1025.98L1064.42 1026.67L1061.17 1026.89L1058.05 1026.54L1057.58 1026.32L1054.78 1025.38L1054.33 1025.16L1052 1023.77L1049.8 1021.78L1049.33 1021.31L1047.59 1018.89L1046.3 1016.21L1045.51 1013.18L1045.26 1010.07L1045.61 1006.92L1046.65 1003.89L1047.59 1002.03L1048.63 1000.52L1049.93 999.136L1051.31 997.875L1052.82 996.71L1054.43 995.764L1056.07 995.072L1058.15 994.505L1060.6 994.159Z" fill="url(#LinearGradient_8)" fill-rule="nonzero" opacity="1" stroke="none" vectornator:layerName="TV Top"/>
</g>
<g opacity="1" vectornator:layerName="TV">
<path d="M1022.91 1111.7C1008.08 1112.05 993.298 1112.19 978.602 1112.79L919.888 1214.64L917.431 1216.02L915.131 1214.64L861.235 1121.63C847.507 1122.84 833.879 1124.57 820.294 1126L884.702 1236.81L884.702 1239.36L883.663 1241.57L882.371 1245.03L881.457 1248.66L880.859 1252.37L880.637 1256.09L880.859 1259.81L881.457 1263.49L882.497 1266.99L883.883 1270.71L885.614 1274.2L887.821 1277.45L890.278 1280.47L893.175 1283.12L896.199 1285.58L899.571 1287.65L903.036 1289.29L907.918 1290.9L912.675 1291.72L917.684 1291.94L922.441 1291.59L926.504 1290.68L930.315 1289.39L933.938 1287.65L937.403 1285.58L940.553 1283.12L943.451 1280.35L946.003 1277.2L948.208 1273.83L950.192 1269.76L951.704 1265.6L952.619 1261.29L952.965 1256.88L952.839 1252.47L952.146 1248.06L950.885 1243.77L949.5 1240.28L949.593 1237.98L1022.91 1111.7ZM654.271 1150.66C634.387 1154.51 628.29 1156.09 605.577 1161.38L606.012 1292.07L654.145 1291.94L654.271 1150.66ZM918.376 1238.76L921.275 1239.02L924.392 1240.06L924.992 1240.28L927.543 1241.79L928.015 1242.13L929.969 1243.99L930.442 1244.47L932.08 1246.8L932.3 1247.27L933.465 1249.82L934.158 1252.94L934.284 1255.15L934.158 1257.48L933.685 1259.68L932.899 1261.76L931.827 1263.75L930.568 1265.6L929.054 1267.21L927.323 1268.5L924.519 1270.01L921.495 1271.05L920.927 1271.18L918.03 1271.4L915.006 1271.18L914.66 1271.05L913.146 1270.71L911.634 1270.23L908.264 1268.28L907.792 1267.9L905.714 1265.95L904.453 1264.44L903.634 1263.05L902.248 1259.68L902.122 1259.08L901.649 1256.44L901.649 1255.84L901.775 1252.94L902.342 1249.92L903.161 1247.84L904.326 1245.98L905.714 1244.25L907.225 1242.73L908.957 1241.35L910.815 1240.28L912.8 1239.49L915.131 1238.89L918.376 1238.76Z" fill="url(#LinearGradient_9)" fill-rule="nonzero" opacity="1" stroke="none" vectornator:layerName="TV Bot"/>
<path d="M776.149 975.793L772.999 975.92L769.88 976.171L766.856 976.864L764.084 977.558L763.959 977.652L760.713 978.943L757.69 980.455L754.886 982.187L752.24 984.298L749.689 986.598L747.483 989.055L745.372 991.828L743.766 994.725L742.254 997.529L741.214 1000.52L740.27 1003.55L739.702 1006.7L739.355 1009.81L739.355 1013.09L739.577 1016.21L740.048 1019.36L740.867 1022.48L742.002 1025.5L743.294 1028.4L744.901 1031.3L746.759 1033.85L748.87 1036.4L751.201 1038.61L753.625 1040.72L756.052 1042.45L758.509 1043.84L761.155 1045.13L763.959 1046.17L766.73 1046.99L769.66 1047.68L772.557 1048.03L773.818 1048.03L776.022 1049.41L820.24 1126.03C833.826 1124.6 847.69 1122.91 861.418 1121.7L810.17 1033.41L810.17 1030.73L812.501 1029.31L1022.52 1029.31L1024.85 1030.73L1024.85 1033.41L978.374 1112.78C993.071 1112.18 1008.19 1112.03 1023.01 1111.68L1058.84 1049.41L1061.05 1048.03L1063.85 1047.9L1067.66 1047.33L1071.5 1046.39L1075.22 1044.88L1079.06 1042.92L1082.65 1040.47L1085.9 1037.57L1088.8 1034.32L1091.13 1030.95L1093.11 1027.36L1094.62 1023.52L1095.76 1019.58L1096.36 1015.52L1096.58 1011.45L1096.23 1007.39L1095.54 1003.33L1094.37 999.482L1092.86 995.891L1090.91 992.521L1088.58 989.275L1086.02 986.378L1083.13 983.825L1079.88 981.494L1076.51 979.51L1073.83 978.377L1071.16 977.432L1068.38 976.612L1065.58 976.171L1062.68 975.92L1059.78 975.793L1056.98 975.92L1054.08 976.393L1050.71 977.085L1047.47 978.124L1044.44 979.51L1041.45 981.148L1038.65 983.006L1035.97 985.213L1033.67 987.637L1032.5 989.055L1030.39 990.094L805.508 990.094L803.43 989.149L801.445 986.724L798.452 984.047L795.176 981.621L791.711 979.636L787.994 978.029L784.15 976.864L780.087 976.044L776.149 975.793ZM720.297 989.275L538.253 989.402L538.126 989.843L538.253 1026.89L538.726 1027.01L602.767 1026.89L604.592 1027.9L605.57 1029.69L605.577 1161.4C624.384 1157.53 635.068 1154.08 654.271 1150.66L654.271 1029.69L655.091 1027.71L656.949 1026.89L720.644 1026.89L720.77 1026.89L720.896 1026.42L720.77 989.402L720.297 989.275ZM774.637 994.159L777.534 994.159L780.338 994.632L782.984 995.671L783.457 995.891L786.261 997.624L786.702 998.095L788.813 1000.18L789.16 1000.65L790.765 1002.98L791.458 1004.71L792.057 1006.44L792.403 1008.21L792.53 1009.81L792.183 1013.66L792.057 1014.23L791.238 1016.9L790.325 1018.67L789.38 1020.15L787.521 1022.13L785.315 1023.99L782.764 1025.38L780.087 1026.32L777.063 1026.89L773.818 1026.76L773.376 1026.67L770.794 1026.07L767.895 1024.9L767.329 1024.68L764.778 1022.83L764.43 1022.48L762.445 1020.27L762.099 1019.93L760.587 1017.38L760.367 1016.9L759.548 1014.13L759.075 1011.45L759.202 1008.43L759.768 1005.53L760.933 1002.85L761.28 1002.29L763.14 999.734L763.486 999.387L765.691 997.403L766.163 997.056L768.714 995.671L769.187 995.418L771.96 994.505L774.637 994.159ZM1060.6 994.159L1063.38 994.159L1066.05 994.725L1068.73 995.671L1071.75 997.529L1073.83 999.482L1075.69 1002.03L1077.08 1004.96L1077.9 1007.96L1078.02 1010.98L1077.68 1013.88L1076.73 1016.81L1076.51 1017.38L1075 1020.05L1074.65 1020.4L1072.79 1022.48L1072.32 1022.83L1070.12 1024.56L1069.64 1024.81L1067.09 1025.98L1064.42 1026.67L1061.17 1026.89L1058.05 1026.54L1057.58 1026.32L1054.78 1025.38L1054.33 1025.16L1052 1023.77L1049.8 1021.78L1049.33 1021.31L1047.59 1018.89L1046.3 1016.21L1045.51 1013.18L1045.26 1010.07L1045.61 1006.92L1046.65 1003.89L1047.59 1002.03L1048.63 1000.52L1049.93 999.136L1051.31 997.875L1052.82 996.71L1054.43 995.764L1056.07 995.072L1058.15 994.505L1060.6 994.159Z" fill="url(#LinearGradient_10)" fill-rule="nonzero" opacity="1" stroke="none" vectornator:layerName="TV Top"/>
</g>
<g opacity="1" vectornator:layerName="GN">
<path d="M1164 1114.3L1164.11 2090.1C1221.94 2084.4 1278.53 2072.33 1332.36 2055.64L1332.41 1126.8C1276.86 1120.58 1220.69 1116.39 1164 1114.3ZM1432.97 1140.28L1687.75 1838.51C1828.93 1693.34 1920.7 1495.81 1929.98 1279.31C1873.24 1256.08 1815.37 1235.03 1756.43 1216.42C1756.77 1225.26 1757.03 1234.12 1757.03 1243.05C1757.03 1324.59 1749.59 1381.31 1723.15 1453.68C1723.15 1453.68 1663.07 1287.48 1623.95 1179.14C1561.27 1163.53 1497.59 1150.49 1432.97 1140.28ZM403.642 1216.37C344.657 1234.99 286.769 1256.06 229.976 1279.31C247.857 1705.62 579.322 2050.77 999.751 2090.1L999.643 1334.45L833.337 1334.45L831.931 1872.77C580.809 1773.81 402.992 1529.33 402.991 1243.05C402.991 1234.1 403.297 1225.23 403.642 1216.37Z" fill="url(#LinearGradient_11)" fill-rule="nonzero" opacity="1" stroke="none" vectornator:layerName="GN Bot"/>
<path d="M999.751 395.99C567.459 436.442 229.11 800.18 229.11 1243.05C229.11 1255.2 229.471 1267.28 229.976 1279.31C286.769 1256.06 344.657 1234.99 403.642 1216.37C416.63 881.787 672.382 609.652 999.751 570.954L999.751 395.99ZM1163.95 397.343L1164 1114.3C1220.69 1116.39 1276.86 1120.58 1332.41 1126.8L1332.41 864.654L1432.97 1140.28C1497.59 1150.49 1561.27 1163.53 1623.95 1179.14C1518.43 886.925 1356.65 438.713 1356.44 438.635C1256.5 402.064 1163.95 397.343 1163.95 397.343ZM1611.18 578.584L1611.18 823.632C1697.29 932.45 1750.68 1068.28 1756.43 1216.42C1815.37 1235.03 1873.24 1256.08 1929.98 1279.31C1930.5 1267.27 1930.9 1255.2 1930.9 1243.05C1930.9 974.105 1805.99 734.497 1611.18 578.584Z" fill="url(#LinearGradient_12)" fill-rule="nonzero" opacity="1" stroke="none" vectornator:layerName="GN Top"/>
</g>
</g>
</g>
</svg>
