<svg xmlns="http://www.w3.org/2000/svg" xmlns:vectornator="http://vectornator.io" xmlns:xlink="http://www.w3.org/1999/xlink" height="100%" stroke-miterlimit="10" style="fill-rule:nonzero;clip-rule:evenodd;stroke-linecap:round;stroke-linejoin:round;" viewBox="0 0 3840 2160" width="100%" xml:space="preserve"><defs><path d="M3840-9.66338e-13L3840 2160L6.82121e-13 2160L2.55795e-13-7.38964e-13L3840-9.66338e-13Z" id="Fill"></path><linearGradient gradientTransform="matrix(1 -7.4815e-18 -7.4815e-18 1 0 -1.13687e-13)" gradientUnits="userSpaceOnUse" id="LinearGradient" x1="1927.99" x2="1911.12" y1="404.047" y2="2169.63"><stop offset="0.400115" stop-color="#1d1d1d"></stop><stop offset="1" stop-color="#242e30"></stop></linearGradient><linearGradient gradientTransform="matrix(1.35052 -0.202294 0.211657 1.34908 -908.165 5.17271)" gradientUnits="userSpaceOnUse" id="LinearGradient_2" x1="1792.73" x2="2673.2" y1="974.815" y2="1837.46"><stop offset="0" stop-color="#1d1d1d"></stop><stop offset="1" stop-color="#376b77"></stop></linearGradient><linearGradient gradientTransform="matrix(0.696778 0.712747 -0.707897 0.701705 1345.57 -1052.84)" gradientUnits="userSpaceOnUse" id="LinearGradient_3" x1="2721.62" x2="4317.09" y1="993.168" y2="3042.49"><stop offset="0" stop-color="#1d1d1d"></stop><stop offset="1" stop-color="#376b77"></stop></linearGradient><linearGradient gradientTransform="matrix(-0.611152 0.606927 -0.611152 -0.606927 3757.6 570.655)" gradientUnits="userSpaceOnUse" id="LinearGradient_4" x1="1250.95" x2="2998.89" y1="-205.347" y2="4740.51"><stop offset="0" stop-color="#1d1d1d"></stop><stop offset="1" stop-color="#376b77"></stop></linearGradient><linearGradient gradientTransform="matrix(-0.270507 0.268637 -0.270507 -0.268637 2731.63 852.825)" gradientUnits="userSpaceOnUse" id="LinearGradient_5" x1="1529.74" x2="3641.62" y1="390.642" y2="8825.23"><stop offset="0" stop-color="#1d1d1d"></stop><stop offset="1" stop-color="#376b77"></stop></linearGradient><linearGradient gradientTransform="matrix(1.00803 0 0 1.00803 -15.4021 -8.67252)" gradientUnits="userSpaceOnUse" id="LinearGradient_6" x1="1645.26" x2="1656.28" y1="975.648" y2="1103.38"><stop offset="3.49553e-05" stop-color="#fddf19"></stop><stop offset="1" stop-color="#e94420"></stop></linearGradient><linearGradient gradientTransform="matrix(1.00803 0 0 1.00803 -15.4021 -8.67252)" gradientUnits="userSpaceOnUse" id="LinearGradient_7" x1="1642.74" x2="1661.28" y1="884.192" y2="980.285"><stop offset="0.00426454" stop-color="#fde019"></stop><stop offset="1" stop-color="#e94420"></stop></linearGradient><linearGradient gradientTransform="matrix(1.00803 0 0 1.00803 -15.4021 -8.67252)" gradientUnits="userSpaceOnUse" id="LinearGradient_8" x1="1922.82" x2="1922.44" y1="1010.23" y2="1887.25"><stop offset="0" stop-color="#00d8da"></stop><stop offset="1" stop-color="#004a69"></stop></linearGradient><linearGradient gradientTransform="matrix(1.00803 0 0 1.00803 -15.4021 -8.67252)" gradientUnits="userSpaceOnUse" id="LinearGradient_9" x1="1921.14" x2="1924.12" y1="1432.73" y2="293.116"><stop offset="0" stop-color="#00d8da"></stop><stop offset="1" stop-color="#004a69"></stop></linearGradient></defs><clipPath id="ArtboardFrame"><rect height="2160" width="3840" x="0" y="0"></rect></clipPath><g clip-path="url(#ArtboardFrame)" id="GNTV-Landing-Page" vectornator:layerName="GNTV Landing Page"><g opacity="1" vectornator:layerName="BG Gradient"><use fill="url(#LinearGradient)" fill-rule="nonzero" stroke="none" xlink:href="#Fill"></use><mask height="2160.2" id="StrokeMask" maskUnits="userSpaceOnUse" width="3840.2" x="-0.1" y="-0.1"><rect fill="#ffffff" height="2160.2" stroke="none" width="3840.2" x="-0.1" y="-0.1"></rect><use fill="#000000" fill-rule="evenodd" stroke="none" xlink:href="#Fill"></use></mask><use fill="none" mask="url(#StrokeMask)" stroke="#000000" stroke-linecap="butt" stroke-linejoin="round" stroke-width="0.2" xlink:href="#Fill"></use></g><g opacity="1" vectornator:layerName="BG Circles"><path d="M621.042 125.979C1146.98-590.461 2154.12-744.894 2870.56-218.958C3587 306.978 3741.44 1314.12 3215.5 2030.56C2689.56 2747 1682.42 2901.44 965.979 2375.5C249.539 1849.56 95.1057 842.418 621.042 125.979Z" fill="url(#LinearGradient_2)" fill-rule="nonzero" opacity="1" stroke="none" vectornator:layerName="BG Oval 1"></path><path d="M1927.5-96.2892C2576.2-91.1899 3097.93 438.812 3092.83 1087.5C3087.73 1736.2 2557.73 2257.93 1909.04 2252.83C1260.35 2247.73 738.611 1717.73 743.711 1069.04C748.81 420.346 1278.81-101.389 1927.5-96.2892Z" fill="url(#LinearGradient_3)" fill-rule="nonzero" opacity="1" stroke="none" vectornator:layerName="BG Oval 2"></path><path d="M2935 1080C2935 1640.57 2480.57 2095 1920 2095C1359.43 2095 905 1640.57 905 1080C905 519.431 1359.43 65 1920 65C2480.57 65 2935 519.431 2935 1080Z" fill="url(#LinearGradient_4)" fill-rule="nonzero" opacity="1" stroke="none" vectornator:layerName="BG Oval 3"></path><path d="M2367.53 1078.27C2367.53 1326.39 2166.39 1527.53 1918.27 1527.53C1670.15 1527.53 1469.01 1326.39 1469.01 1078.27C1469.01 830.152 1670.15 629.013 1918.27 629.013C2166.39 629.013 2367.53 830.152 2367.53 1078.27Z" fill="url(#LinearGradient_5)" fill-rule="nonzero" opacity="1" stroke="none" vectornator:layerName="BG Oval 4"></path><path d="M4157.38 3203.22C4157.38 4448.32 3155.67 5457.67 1920 5457.67C684.326 5457.67-317.385 4448.32-317.385 3203.22C-317.385 1958.12 684.326 948.766 1920 948.766C3155.67 948.766 4157.38 1958.12 4157.38 3203.22Z" fill="#004a69" fill-rule="nonzero" opacity="0.301417" stroke="none" vectornator:blendMode="overlay" vectornator:layerName="BG Oval 5"></path></g><g opacity="0" vectornator:layerName="GNTV"><g opacity="1" vectornator:layerName="TV"><path d="M1862.91 948.653C1848.09 949.003 1833.31 949.137 1818.61 949.742L1759.9 1051.59L1757.44 1052.97L1755.14 1051.59L1701.24 958.586C1687.51 959.794 1673.89 961.521 1660.3 962.952L1724.71 1073.76L1724.71 1076.31L1723.67 1078.52L1722.38 1081.98L1721.47 1085.61L1720.87 1089.32L1720.65 1093.04L1720.87 1096.76L1721.47 1100.44L1722.5 1103.94L1723.89 1107.66L1725.62 1111.15L1727.83 1114.4L1730.29 1117.42L1733.18 1120.07L1736.21 1122.53L1739.58 1124.61L1743.04 1126.24L1747.93 1127.85L1752.68 1128.67L1757.69 1128.89L1762.45 1128.54L1766.51 1127.63L1770.32 1126.34L1773.95 1124.61L1777.41 1122.53L1780.56 1120.07L1783.46 1117.3L1786.01 1114.15L1788.22 1110.78L1790.2 1106.71L1791.71 1102.55L1792.63 1098.24L1792.97 1093.83L1792.85 1089.42L1792.15 1085.01L1790.89 1080.72L1789.51 1077.23L1789.6 1074.93L1862.91 948.653ZM1494.28 987.608C1474.4 991.464 1468.3 993.038 1445.59 998.331L1446.02 1129.02L1494.15 1128.89L1494.28 987.608ZM1758.38 1075.72L1761.28 1075.97L1764.4 1077.01L1765 1077.23L1767.55 1078.74L1768.02 1079.09L1769.98 1080.95L1770.45 1081.42L1772.09 1083.75L1772.31 1084.22L1773.47 1086.77L1774.17 1089.89L1774.29 1092.1L1774.17 1094.43L1773.69 1096.63L1772.91 1098.71L1771.84 1100.7L1770.58 1102.55L1769.06 1104.16L1767.33 1105.45L1764.53 1106.96L1761.5 1108L1760.94 1108.13L1758.04 1108.35L1755.01 1108.13L1754.67 1108L1753.16 1107.66L1751.64 1107.19L1748.27 1105.23L1747.8 1104.85L1745.72 1102.9L1744.46 1101.39L1743.64 1100L1742.26 1096.63L1742.13 1096.03L1741.66 1093.39L1741.66 1092.79L1741.78 1089.89L1742.35 1086.87L1743.17 1084.79L1744.34 1082.93L1745.72 1081.2L1747.23 1079.68L1748.97 1078.3L1750.82 1077.23L1752.81 1076.44L1755.14 1075.84L1758.38 1075.72Z" fill="url(#LinearGradient_6)" fill-rule="nonzero" opacity="1" stroke="none" vectornator:layerName="TV Bot"></path><path d="M1616.16 812.746L1613.01 812.872L1609.89 813.124L1606.86 813.817L1604.09 814.51L1603.97 814.605L1600.72 815.896L1597.7 817.408L1594.89 819.141L1592.25 821.251L1589.7 823.551L1587.49 826.008L1585.38 828.78L1583.77 831.678L1582.26 834.482L1581.22 837.474L1580.28 840.498L1579.71 843.648L1579.36 846.767L1579.36 850.043L1579.59 853.162L1580.06 856.312L1580.88 859.43L1582.01 862.455L1583.3 865.353L1584.91 868.251L1586.77 870.802L1588.88 873.354L1591.21 875.559L1593.63 877.669L1596.06 879.402L1598.52 880.788L1601.16 882.08L1603.97 883.119L1606.74 883.938L1609.67 884.631L1612.57 884.978L1613.83 884.978L1616.03 886.364L1660.25 962.982C1673.83 961.552 1687.7 959.86 1701.43 958.653L1650.18 870.361L1650.18 867.684L1652.51 866.266L1862.53 866.266L1864.86 867.684L1864.86 870.361L1818.38 949.735C1833.08 949.129 1848.2 948.985 1863.02 948.636L1898.85 886.364L1901.05 884.978L1903.86 884.852L1907.67 884.285L1911.51 883.34L1915.23 881.828L1919.07 879.875L1922.66 877.417L1925.91 874.519L1928.8 871.275L1931.14 867.904L1933.12 864.313L1934.63 860.47L1935.77 856.532L1936.36 852.469L1936.59 848.405L1936.24 844.341L1935.55 840.278L1934.38 836.435L1932.87 832.844L1930.92 829.473L1928.58 826.228L1926.03 823.33L1923.13 820.779L1919.89 818.448L1916.52 816.463L1913.84 815.329L1911.16 814.384L1908.39 813.565L1905.59 813.124L1902.69 812.872L1899.79 812.746L1896.99 812.872L1894.09 813.345L1890.72 814.038L1887.48 815.077L1884.45 816.463L1881.46 818.101L1878.66 819.96L1875.98 822.165L1873.68 824.59L1872.51 826.008L1870.4 827.047L1645.52 827.047L1643.44 826.102L1641.45 823.677L1638.46 820.999L1635.18 818.574L1631.72 816.589L1628 814.983L1624.16 813.817L1620.1 812.998L1616.16 812.746ZM1560.31 826.228L1378.26 826.354L1378.14 826.795L1378.26 863.841L1378.74 863.967L1442.78 863.841L1444.6 864.848L1445.58 866.644L1445.59 998.347C1464.39 994.476 1475.08 991.03 1494.28 987.608L1494.28 866.644L1495.1 864.66L1496.96 863.841L1560.65 863.841L1560.78 863.841L1560.91 863.368L1560.78 826.354L1560.31 826.228ZM1614.65 831.111L1617.54 831.111L1620.35 831.584L1622.99 832.623L1623.47 832.844L1626.27 834.576L1626.71 835.049L1628.82 837.128L1629.17 837.6L1630.77 839.931L1631.47 841.664L1632.07 843.396L1632.41 845.16L1632.54 846.767L1632.19 850.61L1632.07 851.177L1631.25 853.855L1630.33 855.619L1629.39 857.099L1627.53 859.084L1625.32 860.942L1622.77 862.328L1620.1 863.274L1617.07 863.841L1613.83 863.715L1613.39 863.62L1610.8 863.022L1607.9 861.856L1607.34 861.635L1604.79 859.777L1604.44 859.43L1602.45 857.225L1602.11 856.879L1600.6 854.327L1600.38 853.855L1599.56 851.083L1599.08 848.405L1599.21 845.381L1599.78 842.483L1600.94 839.805L1601.29 839.238L1603.15 836.687L1603.49 836.34L1605.7 834.356L1606.17 834.009L1608.72 832.623L1609.2 832.371L1611.97 831.458L1614.65 831.111ZM1900.61 831.111L1903.38 831.111L1906.06 831.678L1908.74 832.623L1911.76 834.482L1913.84 836.435L1915.7 838.986L1917.09 841.916L1917.91 844.908L1918.03 847.933L1917.68 850.831L1916.74 853.76L1916.52 854.327L1915.01 857.005L1914.66 857.351L1912.8 859.43L1912.33 859.777L1910.12 861.509L1909.65 861.761L1907.1 862.927L1904.42 863.62L1901.18 863.841L1898.06 863.494L1897.59 863.274L1894.78 862.328L1894.34 862.108L1892.01 860.722L1889.81 858.737L1889.33 858.265L1887.6 855.839L1886.31 853.162L1885.52 850.138L1885.27 847.019L1885.62 843.869L1886.66 840.845L1887.6 838.986L1888.64 837.474L1889.93 836.088L1891.32 834.828L1892.83 833.663L1894.44 832.718L1896.08 832.025L1898.15 831.458L1900.61 831.111Z" fill="url(#LinearGradient_7)" fill-rule="nonzero" opacity="0.694487" stroke="none" vectornator:layerName="TV Top"></path></g><g opacity="1" vectornator:layerName="GN"><path d="M2004.01 951.254L2004.11 1927.05C2061.94 1921.34 2118.53 1909.28 2172.37 1892.58L2172.42 963.755C2116.87 957.533 2060.7 953.342 2004.01 951.254ZM2272.97 977.23L2527.76 1675.46C2668.93 1530.29 2760.7 1332.76 2769.99 1116.26C2713.24 1093.03 2655.37 1071.98 2596.43 1053.37C2596.78 1062.22 2597.03 1071.07 2597.03 1080C2597.03 1161.54 2589.59 1218.26 2563.15 1290.63C2563.15 1290.63 2503.07 1124.43 2463.95 1016.09C2401.27 1000.48 2337.59 987.442 2272.97 977.23ZM1243.65 1053.32C1184.67 1071.94 1126.78 1093.01 1069.99 1116.26C1087.87 1542.57 1419.33 1887.71 1839.76 1927.05L1839.65 1171.41L1673.35 1171.41L1671.94 1709.72C1420.82 1610.76 1243 1366.27 1243 1080C1243 1071.05 1243.31 1062.18 1243.65 1053.32Z" fill="url(#LinearGradient_8)" fill-rule="nonzero" opacity="1" stroke="none" vectornator:layerName="GN Bot"></path><path d="M1839.76 232.947C1407.47 273.399 1069.12 637.134 1069.12 1080C1069.12 1092.15 1069.48 1104.23 1069.99 1116.26C1126.78 1093.01 1184.67 1071.94 1243.65 1053.32C1256.64 718.74 1512.39 446.609 1839.76 407.91L1839.76 232.947ZM2003.95 234.3L2004.01 951.254C2060.7 953.342 2116.87 957.534 2172.42 963.755L2172.42 701.608L2272.97 977.23C2337.59 987.443 2401.27 1000.48 2463.95 1016.09C2358.44 723.879 2196.66 275.67 2196.45 275.592C2096.51 239.021 2003.95 234.3 2003.95 234.3ZM2451.18 415.541L2451.18 660.587C2537.29 769.403 2590.69 905.229 2596.43 1053.37C2655.37 1071.98 2713.24 1093.03 2769.99 1116.26C2770.51 1104.22 2770.91 1092.15 2770.91 1080C2770.91 811.058 2646 571.451 2451.18 415.541Z" fill="url(#LinearGradient_9)" fill-rule="nonzero" opacity="1" stroke="none" vectornator:layerName="GN Top"></path></g></g></g></svg>