<?xml version="1.0" encoding="UTF-8" standalone="no"?>
<!DOCTYPE svg PUBLIC "-//W3C//DTD SVG 1.1//EN" "http://www.w3.org/Graphics/SVG/1.1/DTD/svg11.dtd">
<!-- Created with Vectornator (http://vectornator.io/) -->
<svg height="100%" stroke-miterlimit="10" style="fill-rule:nonzero;clip-rule:evenodd;stroke-linecap:round;stroke-linejoin:round;" version="1.1" viewBox="0 0 2160 3840" width="100%" xml:space="preserve" xmlns="http://www.w3.org/2000/svg" xmlns:vectornator="http://vectornator.io" xmlns:xlink="http://www.w3.org/1999/xlink">
<defs>
<path d="M2160-24.9558L2160 3840L-2.24773e-13 3840L-6.18456e-13-24.9558L2160-24.9558Z" id="Fill"/>
<linearGradient gradientTransform="matrix(0.5625 6.17349e-17 7.09134e-17 1.78933 -7.82165e-13 -24.9558)" gradientUnits="userSpaceOnUse" id="LinearGradient" x1="1927.99" x2="1911.12" y1="404.047" y2="2169.63">
<stop offset="0.400115" stop-color="#1d1d1d"/>
<stop offset="1" stop-color="#242e30"/>
</linearGradient>
<path d="M3000-24.9558L3000 2135.04L-840 2135.04L-840-24.9558L3000-24.9558Z" id="Fill_2"/>
<linearGradient gradientTransform="matrix(1 -7.4815e-18 -7.4815e-18 1 -840 -24.9558)" gradientUnits="userSpaceOnUse" id="LinearGradient_2" x1="1927.99" x2="1911.12" y1="404.047" y2="2169.63">
<stop offset="0.400115" stop-color="#1d1d1d"/>
<stop offset="1" stop-color="#242e30"/>
</linearGradient>
<linearGradient gradientTransform="matrix(1.35052 -0.202294 0.211657 1.34908 -1748.16 -19.7831)" gradientUnits="userSpaceOnUse" id="LinearGradient_3" x1="1792.73" x2="2673.2" y1="974.815" y2="1837.46">
<stop offset="0" stop-color="#1d1d1d"/>
<stop offset="1" stop-color="#376b77"/>
</linearGradient>
<linearGradient gradientTransform="matrix(0.696778 0.712747 -0.707897 0.701705 505.572 -1077.79)" gradientUnits="userSpaceOnUse" id="LinearGradient_4" x1="2721.62" x2="4317.09" y1="993.168" y2="3042.49">
<stop offset="0" stop-color="#1d1d1d"/>
<stop offset="1" stop-color="#376b77"/>
</linearGradient>
<linearGradient gradientTransform="matrix(-0.611152 0.606927 -0.611152 -0.606927 2917.6 545.699)" gradientUnits="userSpaceOnUse" id="LinearGradient_5" x1="1250.95" x2="2998.89" y1="-205.347" y2="4740.51">
<stop offset="0" stop-color="#1d1d1d"/>
<stop offset="1" stop-color="#376b77"/>
</linearGradient>
<linearGradient gradientTransform="matrix(-0.270507 0.268637 -0.270507 -0.268637 1891.63 827.869)" gradientUnits="userSpaceOnUse" id="LinearGradient_6" x1="1529.74" x2="3641.62" y1="390.642" y2="8825.23">
<stop offset="0" stop-color="#1d1d1d"/>
<stop offset="1" stop-color="#376b77"/>
</linearGradient>
<linearGradient gradientTransform="matrix(1.00803 1.35095e-17 1.30687e-17 1.00804 -855.416 -33.6321)" gradientUnits="userSpaceOnUse" id="LinearGradient_7" x1="1641.21" x2="1637.56" y1="704.771" y2="1233.87">
<stop offset="3.49553e-05" stop-color="#fddf19"/>
<stop offset="1" stop-color="#e94420"/>
</linearGradient>
<linearGradient gradientTransform="matrix(1.00803 0 0 1.00804 -855.416 -33.6321)" gradientUnits="userSpaceOnUse" id="LinearGradient_8" x1="1656.3" x2="1659.28" y1="847.753" y2="991.669">
<stop offset="0.00426454" stop-color="#fde019"/>
<stop offset="1" stop-color="#e94420"/>
</linearGradient>
<linearGradient gradientTransform="matrix(1.00803 1.35095e-17 1.30687e-17 1.00804 -855.416 -33.6321)" gradientUnits="userSpaceOnUse" id="LinearGradient_9" x1="1641.21" x2="1637.56" y1="704.771" y2="1233.87">
<stop offset="3.49553e-05" stop-color="#fddf19"/>
<stop offset="1" stop-color="#e94420"/>
</linearGradient>
<linearGradient gradientTransform="matrix(1.00803 0 0 1.00804 -855.416 -33.6321)" gradientUnits="userSpaceOnUse" id="LinearGradient_10" x1="1656.3" x2="1659.28" y1="847.753" y2="991.669">
<stop offset="0.00426454" stop-color="#fde019"/>
<stop offset="1" stop-color="#e94420"/>
</linearGradient>
<linearGradient gradientTransform="matrix(1.00803 0 0 1.00804 -855.416 -33.6321)" gradientUnits="userSpaceOnUse" id="LinearGradient_11" x1="1920.11" x2="1922.25" y1="2323.22" y2="1074.46">
<stop offset="0" stop-color="#00d8da"/>
<stop offset="1" stop-color="#004a69"/>
</linearGradient>
<linearGradient gradientTransform="matrix(1.00803 0 0 1.00804 -855.416 -33.6321)" gradientUnits="userSpaceOnUse" id="LinearGradient_12" x1="1919.95" x2="1919.51" y1="263.097" y2="1238.16">
<stop offset="0" stop-color="#00d8da"/>
<stop offset="1" stop-color="#004a69"/>
</linearGradient>
</defs>
<clipPath id="ArtboardFrame">
<rect height="3840" width="2160" x="0" y="0"/>
</clipPath>
<g clip-path="url(#ArtboardFrame)" id="GNTV-Landing-Page" vectornator:layerName="GNTV Landing Page">
<g opacity="1" vectornator:layerName="BG Gradient">
<use fill="url(#LinearGradient)" fill-rule="nonzero" stroke="none" xlink:href="#Fill"/>
<mask height="3865.16" id="StrokeMask" maskUnits="userSpaceOnUse" width="2160.2" x="-0.1" y="-25.0558">
<rect fill="#ffffff" height="3865.16" stroke="none" width="2160.2" x="-0.1" y="-25.0558"/>
<use fill="#000000" fill-rule="evenodd" stroke="none" xlink:href="#Fill"/>
</mask>
<use fill="none" mask="url(#StrokeMask)" stroke="#000000" stroke-linecap="butt" stroke-linejoin="round" stroke-width="0.2" xlink:href="#Fill"/>
</g>
<g opacity="0" vectornator:layerName="BG Gradient 1">
<use fill="url(#LinearGradient_2)" fill-rule="nonzero" stroke="none" xlink:href="#Fill_2"/>
<mask height="2160.2" id="StrokeMask_2" maskUnits="userSpaceOnUse" width="3840.2" x="-840.1" y="-25.0558">
<rect fill="#ffffff" height="2160.2" stroke="none" width="3840.2" x="-840.1" y="-25.0558"/>
<use fill="#000000" fill-rule="evenodd" stroke="none" xlink:href="#Fill_2"/>
</mask>
<use fill="none" mask="url(#StrokeMask_2)" stroke="#000000" stroke-linecap="butt" stroke-linejoin="round" stroke-width="0.2" xlink:href="#Fill_2"/>
</g>
<g opacity="1" vectornator:layerName="BG Circles">
<path d="M-218.958 101.023C306.978-615.417 1314.12-769.85 2030.56-243.914C2747 282.023 2901.44 1289.17 2375.5 2005.61C1849.56 2722.05 842.418 2876.48 125.979 2350.54C-590.461 1824.61-744.894 817.463-218.958 101.023Z" fill="url(#LinearGradient_3)" fill-rule="nonzero" opacity="1" stroke="none" vectornator:layerName="BG Oval 1"/>
<path d="M1087.5-121.245C1736.2-116.146 2257.93 413.857 2252.83 1062.55C2247.73 1711.24 1717.73 2232.97 1069.04 2227.87C420.346 2222.78-101.389 1692.77-96.2892 1044.08C-91.1899 395.39 438.812-126.344 1087.5-121.245Z" fill="url(#LinearGradient_4)" fill-rule="nonzero" opacity="1" stroke="none" vectornator:layerName="BG Oval 2"/>
<path d="M2095 1055.04C2095 1615.61 1640.57 2070.04 1080 2070.04C519.431 2070.04 65 1615.61 65 1055.04C65 494.475 519.431 40.0442 1080 40.0442C1640.57 40.0442 2095 494.475 2095 1055.04Z" fill="url(#LinearGradient_5)" fill-rule="nonzero" opacity="1" stroke="none" vectornator:layerName="BG Oval 3"/>
<path d="M1527.53 1053.31C1527.53 1301.43 1326.39 1502.57 1078.27 1502.57C830.152 1502.57 629.013 1301.43 629.013 1053.31C629.013 805.197 830.152 604.057 1078.27 604.057C1326.39 604.057 1527.53 805.197 1527.53 1053.31Z" fill="url(#LinearGradient_6)" fill-rule="nonzero" opacity="1" stroke="none" vectornator:layerName="BG Oval 4"/>
<path d="M3317.38 3178.26C3317.38 4423.36 2315.67 5432.72 1080 5432.72C-155.674 5432.72-1157.38 4423.36-1157.38 3178.26C-1157.38 1933.16-155.674 923.81 1080 923.81C2315.67 923.81 3317.38 1933.16 3317.38 3178.26Z" fill="#004a69" fill-rule="nonzero" opacity="0.301417" stroke="none" vectornator:blendMode="overlay" vectornator:layerName="BG Oval 5"/>
</g>
<g opacity="0" vectornator:layerName="GNTV Logo">
<g opacity="0" vectornator:layerName="TV BAK">
<path d="M1022.91 923.702C1008.08 924.05 993.298 924.185 978.602 924.791L919.888 1026.64L917.431 1028.02L915.131 1026.64L861.235 933.634C847.507 934.843 833.879 936.569 820.294 938L884.702 1048.81L884.702 1051.36L883.663 1053.57L882.371 1057.03L881.457 1060.66L880.859 1064.37L880.637 1068.09L880.859 1071.81L881.457 1075.49L882.497 1078.99L883.883 1082.71L885.614 1086.2L887.821 1089.45L890.278 1092.47L893.175 1095.12L896.199 1097.58L899.571 1099.65L903.036 1101.29L907.918 1102.9L912.675 1103.72L917.684 1103.94L922.441 1103.59L926.504 1102.68L930.315 1101.39L933.938 1099.65L937.403 1097.58L940.553 1095.12L943.451 1092.35L946.003 1089.2L948.208 1085.83L950.192 1081.76L951.704 1077.6L952.619 1073.29L952.965 1068.88L952.839 1064.47L952.146 1060.06L950.885 1055.77L949.5 1052.28L949.593 1049.98L1022.91 923.702ZM654.271 962.657C634.387 966.512 628.29 968.086 605.577 973.38L606.012 1104.07L654.145 1103.94L654.271 962.657ZM918.376 1050.76L921.275 1051.02L924.392 1052.06L924.992 1052.28L927.543 1053.79L928.015 1054.13L929.969 1055.99L930.442 1056.47L932.08 1058.8L932.3 1059.27L933.465 1061.82L934.158 1064.94L934.284 1067.15L934.158 1069.48L933.685 1071.68L932.899 1073.76L931.827 1075.75L930.568 1077.6L929.054 1079.21L927.323 1080.5L924.519 1082.01L921.495 1083.05L920.927 1083.18L918.03 1083.4L915.006 1083.18L914.66 1083.05L913.146 1082.71L911.634 1082.23L908.264 1080.28L907.792 1079.9L905.714 1077.95L904.453 1076.44L903.634 1075.05L902.248 1071.68L902.122 1071.08L901.649 1068.44L901.649 1067.84L901.775 1064.94L902.342 1061.92L903.161 1059.84L904.326 1057.98L905.714 1056.25L907.225 1054.73L908.957 1053.35L910.815 1052.28L912.8 1051.49L915.131 1050.89L918.376 1050.76Z" fill="url(#LinearGradient_7)" fill-rule="nonzero" opacity="1" stroke="none" vectornator:layerName="TV Bot"/>
<path d="M776.149 787.793L772.999 787.92L769.88 788.171L766.856 788.864L764.084 789.558L763.959 789.652L760.713 790.943L757.69 792.455L754.886 794.187L752.24 796.298L749.689 798.598L747.483 801.055L745.372 803.828L743.766 806.725L742.254 809.529L741.214 812.522L740.27 815.545L739.702 818.695L739.355 821.814L739.355 825.091L739.577 828.21L740.048 831.36L740.867 834.479L742.002 837.502L743.294 840.4L744.901 843.299L746.759 845.85L748.87 848.402L751.201 850.607L753.625 852.718L756.052 854.45L758.509 855.835L761.155 857.127L763.959 858.166L766.73 858.985L769.66 859.68L772.557 860.026L773.818 860.026L776.022 861.412L820.24 938.031C833.826 936.6 847.69 934.908 861.418 933.701L810.17 845.408L810.17 842.731L812.501 841.314L1022.52 841.314L1024.85 842.731L1024.85 845.408L978.374 924.783C993.071 924.178 1008.19 924.033 1023.01 923.685L1058.84 861.412L1061.05 860.026L1063.85 859.9L1067.66 859.332L1071.5 858.388L1075.22 856.876L1079.06 854.923L1082.65 852.465L1085.9 849.568L1088.8 846.322L1091.13 842.952L1093.11 839.361L1094.62 835.518L1095.76 831.58L1096.36 827.517L1096.58 823.453L1096.23 819.39L1095.54 815.325L1094.37 811.482L1092.86 807.891L1090.91 804.521L1088.58 801.275L1086.02 798.378L1083.13 795.825L1079.88 793.494L1076.51 791.51L1073.83 790.377L1071.16 789.432L1068.38 788.612L1065.58 788.171L1062.68 787.92L1059.78 787.793L1056.98 787.92L1054.08 788.393L1050.71 789.085L1047.47 790.124L1044.44 791.51L1041.45 793.148L1038.65 795.006L1035.97 797.213L1033.67 799.637L1032.5 801.055L1030.39 802.094L805.508 802.094L803.43 801.149L801.445 798.724L798.452 796.047L795.176 793.621L791.711 791.636L787.994 790.029L784.15 788.864L780.087 788.044L776.149 787.793ZM720.297 801.275L538.253 801.402L538.126 801.843L538.253 838.888L538.726 839.014L602.767 838.888L604.592 839.896L605.57 841.692L605.577 973.396C624.384 969.525 635.068 966.079 654.271 962.657L654.271 841.692L655.091 839.707L656.949 838.888L720.644 838.888L720.77 838.888L720.896 838.415L720.77 801.402L720.297 801.275ZM774.637 806.159L777.534 806.159L780.338 806.632L782.984 807.671L783.457 807.891L786.261 809.624L786.702 810.095L788.813 812.175L789.16 812.648L790.765 814.979L791.458 816.711L792.057 818.444L792.403 820.207L792.53 821.814L792.183 825.657L792.057 826.225L791.238 828.902L790.325 830.667L789.38 832.146L787.521 834.131L785.315 835.991L782.764 837.376L780.087 838.322L777.063 838.888L773.818 838.762L773.376 838.668L770.794 838.069L767.895 836.903L767.329 836.683L764.778 834.825L764.43 834.479L762.445 832.273L762.099 831.926L760.587 829.375L760.367 828.902L759.548 826.13L759.075 823.453L759.202 820.429L759.768 817.53L760.933 814.852L761.28 814.286L763.14 811.734L763.486 811.387L765.691 809.403L766.163 809.056L768.714 807.671L769.187 807.418L771.96 806.505L774.637 806.159ZM1060.6 806.159L1063.38 806.159L1066.05 806.725L1068.73 807.671L1071.75 809.529L1073.83 811.482L1075.69 814.033L1077.08 816.964L1077.9 819.956L1078.02 822.98L1077.68 825.879L1076.73 828.807L1076.51 829.375L1075 832.053L1074.65 832.399L1072.79 834.479L1072.32 834.825L1070.12 836.557L1069.64 836.81L1067.09 837.975L1064.42 838.668L1061.17 838.888L1058.05 838.542L1057.58 838.322L1054.78 837.376L1054.33 837.156L1052 835.769L1049.8 833.784L1049.33 833.312L1047.59 830.887L1046.3 828.21L1045.51 825.184L1045.26 822.067L1045.61 818.917L1046.65 815.892L1047.59 814.033L1048.63 812.522L1049.93 811.136L1051.31 809.875L1052.82 808.71L1054.43 807.764L1056.07 807.072L1058.15 806.505L1060.6 806.159Z" fill="url(#LinearGradient_8)" fill-rule="nonzero" opacity="1" stroke="none" vectornator:layerName="TV Top"/>
</g>
<g opacity="1" vectornator:layerName="TV">
<path d="M1022.91 923.702C1008.08 924.05 993.298 924.185 978.602 924.791L919.888 1026.64L917.431 1028.02L915.131 1026.64L861.235 933.634C847.507 934.843 833.879 936.569 820.294 938L884.702 1048.81L884.702 1051.36L883.663 1053.57L882.371 1057.03L881.457 1060.66L880.859 1064.37L880.637 1068.09L880.859 1071.81L881.457 1075.49L882.497 1078.99L883.883 1082.71L885.614 1086.2L887.821 1089.45L890.278 1092.47L893.175 1095.12L896.199 1097.58L899.571 1099.65L903.036 1101.29L907.918 1102.9L912.675 1103.72L917.684 1103.94L922.441 1103.59L926.504 1102.68L930.315 1101.39L933.938 1099.65L937.403 1097.58L940.553 1095.12L943.451 1092.35L946.003 1089.2L948.208 1085.83L950.192 1081.76L951.704 1077.6L952.619 1073.29L952.965 1068.88L952.839 1064.47L952.146 1060.06L950.885 1055.77L949.5 1052.28L949.593 1049.98L1022.91 923.702ZM654.271 962.657C634.387 966.512 628.29 968.086 605.577 973.38L606.012 1104.07L654.145 1103.94L654.271 962.657ZM918.376 1050.76L921.275 1051.02L924.392 1052.06L924.992 1052.28L927.543 1053.79L928.015 1054.13L929.969 1055.99L930.442 1056.47L932.08 1058.8L932.3 1059.27L933.465 1061.82L934.158 1064.94L934.284 1067.15L934.158 1069.48L933.685 1071.68L932.899 1073.76L931.827 1075.75L930.568 1077.6L929.054 1079.21L927.323 1080.5L924.519 1082.01L921.495 1083.05L920.927 1083.18L918.03 1083.4L915.006 1083.18L914.66 1083.05L913.146 1082.71L911.634 1082.23L908.264 1080.28L907.792 1079.9L905.714 1077.95L904.453 1076.44L903.634 1075.05L902.248 1071.68L902.122 1071.08L901.649 1068.44L901.649 1067.84L901.775 1064.94L902.342 1061.92L903.161 1059.84L904.326 1057.98L905.714 1056.25L907.225 1054.73L908.957 1053.35L910.815 1052.28L912.8 1051.49L915.131 1050.89L918.376 1050.76Z" fill="url(#LinearGradient_9)" fill-rule="nonzero" opacity="1" stroke="none" vectornator:layerName="TV Bot"/>
<path d="M776.149 787.793L772.999 787.92L769.88 788.171L766.856 788.864L764.084 789.558L763.959 789.652L760.713 790.943L757.69 792.455L754.886 794.187L752.24 796.298L749.689 798.598L747.483 801.055L745.372 803.828L743.766 806.725L742.254 809.529L741.214 812.522L740.27 815.545L739.702 818.695L739.355 821.814L739.355 825.091L739.577 828.21L740.048 831.36L740.867 834.479L742.002 837.502L743.294 840.4L744.901 843.299L746.759 845.85L748.87 848.402L751.201 850.607L753.625 852.718L756.052 854.45L758.509 855.835L761.155 857.127L763.959 858.166L766.73 858.985L769.66 859.68L772.557 860.026L773.818 860.026L776.022 861.412L820.24 938.031C833.826 936.6 847.69 934.908 861.418 933.701L810.17 845.408L810.17 842.731L812.501 841.314L1022.52 841.314L1024.85 842.731L1024.85 845.408L978.374 924.783C993.071 924.178 1008.19 924.033 1023.01 923.685L1058.84 861.412L1061.05 860.026L1063.85 859.9L1067.66 859.332L1071.5 858.388L1075.22 856.876L1079.06 854.923L1082.65 852.465L1085.9 849.568L1088.8 846.322L1091.13 842.952L1093.11 839.361L1094.62 835.518L1095.76 831.58L1096.36 827.517L1096.58 823.453L1096.23 819.39L1095.54 815.325L1094.37 811.482L1092.86 807.891L1090.91 804.521L1088.58 801.275L1086.02 798.378L1083.13 795.825L1079.88 793.494L1076.51 791.51L1073.83 790.377L1071.16 789.432L1068.38 788.612L1065.58 788.171L1062.68 787.92L1059.78 787.793L1056.98 787.92L1054.08 788.393L1050.71 789.085L1047.47 790.124L1044.44 791.51L1041.45 793.148L1038.65 795.006L1035.97 797.213L1033.67 799.637L1032.5 801.055L1030.39 802.094L805.508 802.094L803.43 801.149L801.445 798.724L798.452 796.047L795.176 793.621L791.711 791.636L787.994 790.029L784.15 788.864L780.087 788.044L776.149 787.793ZM720.297 801.275L538.253 801.402L538.126 801.843L538.253 838.888L538.726 839.014L602.767 838.888L604.592 839.896L605.57 841.692L605.577 973.396C624.384 969.525 635.068 966.079 654.271 962.657L654.271 841.692L655.091 839.707L656.949 838.888L720.644 838.888L720.77 838.888L720.896 838.415L720.77 801.402L720.297 801.275ZM774.637 806.159L777.534 806.159L780.338 806.632L782.984 807.671L783.457 807.891L786.261 809.624L786.702 810.095L788.813 812.175L789.16 812.648L790.765 814.979L791.458 816.711L792.057 818.444L792.403 820.207L792.53 821.814L792.183 825.657L792.057 826.225L791.238 828.902L790.325 830.667L789.38 832.146L787.521 834.131L785.315 835.991L782.764 837.376L780.087 838.322L777.063 838.888L773.818 838.762L773.376 838.668L770.794 838.069L767.895 836.903L767.329 836.683L764.778 834.825L764.43 834.479L762.445 832.273L762.099 831.926L760.587 829.375L760.367 828.902L759.548 826.13L759.075 823.453L759.202 820.429L759.768 817.53L760.933 814.852L761.28 814.286L763.14 811.734L763.486 811.387L765.691 809.403L766.163 809.056L768.714 807.671L769.187 807.418L771.96 806.505L774.637 806.159ZM1060.6 806.159L1063.38 806.159L1066.05 806.725L1068.73 807.671L1071.75 809.529L1073.83 811.482L1075.69 814.033L1077.08 816.964L1077.9 819.956L1078.02 822.98L1077.68 825.879L1076.73 828.807L1076.51 829.375L1075 832.053L1074.65 832.399L1072.79 834.479L1072.32 834.825L1070.12 836.557L1069.64 836.81L1067.09 837.975L1064.42 838.668L1061.17 838.888L1058.05 838.542L1057.58 838.322L1054.78 837.376L1054.33 837.156L1052 835.769L1049.8 833.784L1049.33 833.312L1047.59 830.887L1046.3 828.21L1045.51 825.184L1045.26 822.067L1045.61 818.917L1046.65 815.892L1047.59 814.033L1048.63 812.522L1049.93 811.136L1051.31 809.875L1052.82 808.71L1054.43 807.764L1056.07 807.072L1058.15 806.505L1060.6 806.159Z" fill="url(#LinearGradient_10)" fill-rule="nonzero" opacity="1" stroke="none" vectornator:layerName="TV Top"/>
</g>
<g opacity="1" vectornator:layerName="GN">
<path d="M1164 926.302L1164.11 1902.1C1221.94 1896.4 1278.53 1884.33 1332.36 1867.64L1332.41 938.803C1276.86 932.581 1220.69 928.39 1164 926.302ZM1432.97 952.278L1687.75 1650.51C1828.93 1505.34 1920.7 1307.81 1929.98 1091.31C1873.24 1068.08 1815.37 1047.03 1756.43 1028.42C1756.77 1037.26 1757.03 1046.12 1757.03 1055.05C1757.03 1136.59 1749.59 1193.31 1723.15 1265.68C1723.15 1265.68 1663.07 1099.48 1623.95 991.136C1561.27 975.527 1497.59 962.491 1432.97 952.278ZM403.642 1028.37C344.657 1046.99 286.769 1068.06 229.976 1091.31C247.857 1517.62 579.322 1862.77 999.751 1902.1L999.643 1146.45L833.337 1146.45L831.931 1684.77C580.809 1585.81 402.992 1341.33 402.991 1055.05C402.991 1046.1 403.297 1037.23 403.642 1028.37Z" fill="url(#LinearGradient_11)" fill-rule="nonzero" opacity="1" stroke="none" vectornator:layerName="GN Bot"/>
<path d="M999.751 207.99C567.459 248.442 229.11 612.18 229.11 1055.05C229.11 1067.2 229.471 1079.28 229.976 1091.31C286.769 1068.06 344.657 1046.99 403.642 1028.37C416.63 693.787 672.382 421.652 999.751 382.954L999.751 207.99ZM1163.95 209.343L1164 926.302C1220.69 928.39 1276.86 932.583 1332.41 938.803L1332.41 676.654L1432.97 952.278C1497.59 962.491 1561.27 975.527 1623.95 991.136C1518.43 698.925 1356.65 250.713 1356.44 250.635C1256.5 214.064 1163.95 209.343 1163.95 209.343ZM1611.18 390.584L1611.18 635.632C1697.29 744.45 1750.68 880.278 1756.43 1028.42C1815.37 1047.03 1873.24 1068.08 1929.98 1091.31C1930.5 1079.27 1930.9 1067.2 1930.9 1055.05C1930.9 786.105 1805.99 546.497 1611.18 390.584Z" fill="url(#LinearGradient_12)" fill-rule="nonzero" opacity="1" stroke="none" vectornator:layerName="GN Top"/>
</g>
</g>
</g>
</svg>
